<svg width="108" height="30" viewBox="0 0 108 30" fill="none" xmlns="http://www.w3.org/2000/svg">
<g id="AIOW">
<path d="M19.0741 22.7311H5.68433L3.11586 29.7059H0L10.7371 0.714284H14.0635L24.7584 29.7059H21.6426L19.0741 22.7311ZM18.1899 20.2941L12.3792 4.41176L6.56856 20.2941H18.1899Z" fill="url(#paint0_linear_389_332)"/>
<path d="M32.4362 0.336133V29.7059H29.4888V0.336133H32.4362Z" fill="url(#paint1_linear_389_332)"/>
<path d="M52.332 30C49.6092 30 47.1389 29.3697 44.9214 28.1092C42.7038 26.8207 40.9493 25.042 39.6581 22.7731C38.3949 20.4762 37.7633 17.8852 37.7633 15C37.7633 12.1148 38.3949 9.53782 39.6581 7.26891C40.9493 4.97199 42.7038 3.19328 44.9214 1.93277C47.1389 0.644258 49.6092 0 52.332 0C55.083 0 57.5672 0.644258 59.7848 1.93277C62.0024 3.19328 63.7428 4.97199 65.006 7.26891C66.2692 9.53782 66.9008 12.1148 66.9008 15C66.9008 17.8852 66.2692 20.4762 65.006 22.7731C63.7428 25.042 62.0024 26.8207 59.7848 28.1092C57.5672 29.3697 55.083 30 52.332 30ZM52.332 27.437C54.5216 27.437 56.4865 26.9328 58.2269 25.9244C59.9673 24.916 61.3428 23.4734 62.3533 21.5966C63.3639 19.6919 63.8691 17.493 63.8691 15C63.8691 12.507 63.3639 10.3221 62.3533 8.44538C61.3428 6.56863 59.9673 5.12605 58.2269 4.11765C56.4865 3.10924 54.5216 2.60504 52.332 2.60504C50.1425 2.60504 48.1776 3.10924 46.4372 4.11765C44.6968 5.12605 43.3213 6.56863 42.3108 8.44538C41.3002 10.3221 40.795 12.507 40.795 15C40.795 17.493 41.3002 19.6919 42.3108 21.5966C43.3213 23.4734 44.6968 24.916 46.4372 25.9244C48.1776 26.9328 50.1425 27.437 52.332 27.437Z" fill="url(#paint2_linear_389_332)"/>
<path d="M108 0.336133L99.663 29.7059H96.3787L88.968 4.66387L81.3889 29.7059L78.1888 29.7479L70.0202 0.336133H73.1782L79.9152 26.0924L87.4522 0.336133H90.7365L98.063 26.0924L104.842 0.336133H108Z" fill="url(#paint3_linear_389_332)"/>
</g>
<defs>
<linearGradient id="paint0_linear_389_332" x1="54" y1="0" x2="54" y2="30" gradientUnits="userSpaceOnUse">
<stop stop-color="#008CFF"/>
<stop offset="1" stop-color="#00D1FF"/>
</linearGradient>
<linearGradient id="paint1_linear_389_332" x1="54" y1="0" x2="54" y2="30" gradientUnits="userSpaceOnUse">
<stop stop-color="#008CFF"/>
<stop offset="1" stop-color="#00D1FF"/>
</linearGradient>
<linearGradient id="paint2_linear_389_332" x1="54" y1="0" x2="54" y2="30" gradientUnits="userSpaceOnUse">
<stop stop-color="#008CFF"/>
<stop offset="1" stop-color="#00D1FF"/>
</linearGradient>
<linearGradient id="paint3_linear_389_332" x1="54" y1="0" x2="54" y2="30" gradientUnits="userSpaceOnUse">
<stop stop-color="#008CFF"/>
<stop offset="1" stop-color="#00D1FF"/>
</linearGradient>
</defs>
</svg>
