<svg width="50" height="49" viewBox="0 0 50 49" fill="none" xmlns="http://www.w3.org/2000/svg">
<g id="mingcute:avalanche-avax-fill" clip-path="url(#clip0_448_46)">
<g id="Group">
<path id="Vector" fill-rule="evenodd" clip-rule="evenodd" d="M32.5792 17.7605C32.8535 17.2949 32.9979 16.7668 32.9979 16.2292C32.9979 15.6917 32.8535 15.1635 32.5792 14.698L27.9459 6.83348C27.6716 6.36796 27.2771 5.98139 26.802 5.71263C26.327 5.44386 25.7881 5.30237 25.2396 5.30237C24.6911 5.30237 24.1522 5.44386 23.6772 5.71263C23.2021 5.98139 22.8077 6.36796 22.5334 6.83348L4.54587 37.3625C4.2716 37.8281 4.1272 38.3562 4.1272 38.8938C4.12719 39.4313 4.27158 39.9594 4.54585 40.425C4.82011 40.8906 5.2146 41.2772 5.68965 41.5459C6.16469 41.8147 6.70357 41.9563 7.25212 41.9563H16.5188C17.0677 41.9566 17.607 41.8153 18.0824 41.5465C18.5579 41.2777 18.9527 40.8909 19.2271 40.425L32.5792 17.7605ZM43.225 41.9583C43.7738 41.9587 44.3129 41.8174 44.7882 41.5488C45.2636 41.2801 45.6584 40.8935 45.9329 40.4279C46.2074 39.9623 46.352 39.4341 46.352 38.8963C46.3521 38.3586 46.2077 37.8303 45.9334 37.3646L39.4042 26.2824C39.1299 25.8169 38.7354 25.4303 38.2604 25.1615C37.7853 24.8928 37.2465 24.7513 36.6979 24.7513C36.1494 24.7513 35.6106 24.8928 35.1355 25.1615C34.6605 25.4303 34.266 25.8169 33.9917 26.2824L27.4625 37.3646C27.1883 37.8301 27.0439 38.3582 27.0439 38.8958C27.0439 39.4334 27.1882 39.9615 27.4625 40.427C27.7368 40.8926 28.1313 41.2792 28.6063 41.548C29.0814 41.8168 29.6202 41.9583 30.1688 41.9583H43.2271H43.225Z" fill="url(#paint0_linear_448_46)"/>
</g>
</g>
<defs>
<linearGradient id="paint0_linear_448_46" x1="25.2396" y1="5.30237" x2="25.2396" y2="41.9583" gradientUnits="userSpaceOnUse">
<stop stop-color="#008CFF"/>
<stop offset="1" stop-color="#00D1FF"/>
</linearGradient>
<clipPath id="clip0_448_46">
<rect width="50" height="49" fill="white"/>
</clipPath>
</defs>
</svg>
