<svg width="44" height="45" viewBox="0 0 44 45" fill="none" xmlns="http://www.w3.org/2000/svg">
<g id="mingcute:binance-coin-bnb-fill" clip-path="url(#clip0_448_40)">
<g id="Group">
<path id="Vector" d="M14.8683 25.815L21.351 32.4431C21.5229 32.6189 21.756 32.7176 21.9991 32.7176C22.2422 32.7176 22.4753 32.6189 22.6472 32.4431L29.1298 25.815C29.3017 25.6393 29.5349 25.5405 29.7779 25.5405C30.021 25.5405 30.2541 25.6393 30.426 25.815L33.2787 28.7306C33.4505 28.9064 33.5471 29.1449 33.5471 29.3934C33.5471 29.642 33.4505 29.8805 33.2787 30.0563L22.6472 40.9294C22.4753 41.1051 22.2422 41.2039 21.9991 41.2039C21.756 41.2039 21.5229 41.1051 21.351 40.9294L10.7213 30.0563C10.5495 29.8805 10.453 29.642 10.453 29.3934C10.453 29.1449 10.5495 28.9064 10.7213 28.7306L13.574 25.815C13.7459 25.6393 13.979 25.5405 14.2221 25.5405C14.4652 25.5405 14.6983 25.6393 14.8702 25.815H14.8683ZM37.0407 18.8119L37.1672 18.9206L40.0198 21.8363C40.1717 21.9914 40.2655 22.1961 40.2849 22.4147C40.3044 22.6333 40.2482 22.8519 40.1262 23.0325L40.0198 23.1638L37.1672 26.0794C37.0155 26.2347 36.8154 26.3306 36.6016 26.3505C36.3879 26.3704 36.1741 26.3129 35.9975 26.1881L35.871 26.0794L33.0183 23.1619C32.8672 23.0066 32.7741 22.8022 32.755 22.584C32.7359 22.3658 32.7921 22.1477 32.9138 21.9675L33.0183 21.8363L35.871 18.9206C36.0033 18.7853 36.173 18.6946 36.3572 18.6607C36.5413 18.6269 36.7312 18.6515 36.9013 18.7313L37.0407 18.8119ZM8.12902 18.9206L10.9817 21.8363C11.1535 22.0121 11.2501 22.2505 11.2501 22.4991C11.2501 22.7477 11.1535 22.9861 10.9817 23.1619L8.12902 26.0813C7.95711 26.257 7.724 26.3557 7.48093 26.3557C7.23786 26.3557 7.00475 26.257 6.83285 26.0813L3.97835 23.1619C3.8065 22.9861 3.70996 22.7477 3.70996 22.4991C3.70996 22.2505 3.8065 22.0121 3.97835 21.8363L6.83102 18.9206C7.00292 18.7449 7.23603 18.6461 7.4791 18.6461C7.72217 18.6461 7.95711 18.7449 8.12902 18.9206ZM22.5207 18.8119L22.649 18.9206L25.4998 21.8363C25.6517 21.9914 25.7455 22.1961 25.7649 22.4147C25.7844 22.6333 25.7282 22.8519 25.6062 23.0325L25.4998 23.1638L22.649 26.0794C22.4973 26.2347 22.2972 26.3306 22.0834 26.3505C21.8697 26.3704 21.6559 26.3129 21.4793 26.1881L21.351 26.0794L18.5002 23.1619C18.3488 23.0069 18.2553 22.8025 18.2358 22.5844C18.2164 22.3662 18.2723 22.1479 18.3938 21.9675L18.5002 21.8363L21.351 18.9206C21.4833 18.7853 21.653 18.6946 21.8372 18.6607C22.0213 18.6269 22.2112 18.6515 22.3813 18.7313L22.5207 18.8119ZM22.649 4.07063L33.2787 14.9419C33.4505 15.1177 33.5471 15.3561 33.5471 15.6047C33.5471 15.8533 33.4505 16.0917 33.2787 16.2675L30.426 19.185C30.2541 19.3608 30.021 19.4595 29.7779 19.4595C29.5349 19.4595 29.3017 19.3608 29.1298 19.185L22.649 12.5569C22.5639 12.4696 22.4627 12.4003 22.3513 12.353C22.24 12.3058 22.1206 12.2815 22 12.2815C21.8794 12.2815 21.7601 12.3058 21.6487 12.353C21.5373 12.4003 21.4362 12.4696 21.351 12.5569L14.8702 19.185C14.6983 19.3608 14.4652 19.4595 14.2221 19.4595C13.979 19.4595 13.7459 19.3608 13.574 19.185L10.7213 16.2675C10.5495 16.0917 10.453 15.8533 10.453 15.6047C10.453 15.3561 10.5495 15.1177 10.7213 14.9419L21.351 4.07063C21.5229 3.89488 21.756 3.79614 21.9991 3.79614C22.2422 3.79614 22.4771 3.89488 22.649 4.07063Z" fill="url(#paint0_linear_448_40)"/>
</g>
</g>
<defs>
<linearGradient id="paint0_linear_448_40" x1="21.9993" y1="3.79614" x2="21.9993" y2="41.2039" gradientUnits="userSpaceOnUse">
<stop stop-color="#008CFF"/>
<stop offset="1" stop-color="#00D1FF"/>
</linearGradient>
<clipPath id="clip0_448_40">
<rect width="44" height="45" fill="white"/>
</clipPath>
</defs>
</svg>
