<svg width="217" height="217" viewBox="0 0 217 217" fill="none" xmlns="http://www.w3.org/2000/svg">
<g id="mural-artist/bro" opacity="0.3">
<g id="Mural">
<path id="Vector" d="M109.218 83.3588C100.744 81.1649 94.4962 92.7321 93.098 95.5992C95.4519 90.5053 111.044 55.6388 93.517 52.3292C74.6008 48.7607 76.032 71.2454 76.032 71.2454C76.032 71.2454 62.4686 20.9089 49.263 26.6196L48.8582 26.8126C72.8024 69.0845 86.7376 129.755 86.7376 129.755C86.7376 129.755 118.855 85.8586 109.218 83.3588Z" fill="white"/>
<path id="Vector_2" d="M207.871 183.071C205.291 180.124 200.056 182.826 198.818 183.542C200.983 182.257 215.545 173.269 209.89 167.625C203.77 161.533 198.643 170.219 198.643 170.219C198.643 170.219 206.312 148.153 199.985 146.934L199.783 146.905C197.984 168.594 187.844 194.577 187.844 194.577C187.844 194.577 210.813 186.423 207.871 183.071Z" fill="white"/>
<path id="Vector_3" d="M96.4123 172.126C90.7158 172.912 89.8213 181.508 89.666 183.589C89.8354 179.898 90.6075 154.801 79.0968 157.178C66.7057 159.734 73.1978 173.048 73.1978 173.048C73.1978 173.048 52.3655 145.846 45.7651 152.621C45.6955 152.691 45.6295 152.765 45.5674 152.842C70.698 172.559 94.3456 205.961 94.3456 205.961C94.3456 205.961 102.881 171.222 96.4123 172.126Z" fill="white"/>
<path id="Vector_4" d="M109.961 169.475C111.948 166.514 111.948 163.925 110.71 161.552C107.57 163.576 103.648 166.005 100.061 167.959C99.2557 168.397 98.4648 168.811 97.7069 169.193C89.7035 173.185 69.196 173.185 65.7734 157.216C62.3508 141.247 73.1883 138.116 74.8973 130.701C75.368 128.649 75.1421 125.918 74.5724 123.046C69.5444 111.545 68.2733 99.4315 70.0529 93.9233C73.1883 84.2299 82.025 78.2415 91.1488 78.8111C98.832 79.2819 114.815 83.3777 118.233 83.6602C121.651 83.9427 130.474 83.0906 130.474 83.0906C130.474 83.0906 146.443 85.6563 156.706 80.2376C166.969 74.8188 183.221 73.1099 188.639 82.5162C194.058 91.9225 191.775 97.346 186.643 108.179C181.512 119.012 190.348 121.577 192.344 133.267C193.799 141.798 186.149 147.292 181.907 149.636C181.04 150.124 180.146 150.561 179.228 150.945L168.108 148.092L164.121 162.347C164.121 162.347 172.67 167.484 185.217 179.456C193.347 187.219 200.522 197.256 204.561 203.358C206.755 206.653 208.026 208.824 208.026 208.824H86.0125C86.0125 208.824 87.8957 205.608 90.6545 200.914C96.0544 191.772 104.886 177.012 109.961 169.475Z" fill="#2B9FFF"/>
<path id="Vector_5" d="M204.576 203.358C199.929 204.144 193.361 204.874 187.604 204.073C177.355 202.661 184.473 193.537 186.464 188.41C188.456 183.283 172.209 193.537 167.972 190.406C163.735 187.276 174.808 177.304 172.242 171.895C169.676 166.486 159.714 171.895 154.875 167.343C150.035 162.79 159.997 158.798 161.423 155.95C162.85 153.101 147.898 149.806 149.748 140.291C151.598 130.777 159.163 143.704 160.854 140.861C162.544 138.017 151.155 131.746 151.725 124.614C152.295 117.482 160.27 122.053 160.27 122.053C160.27 122.053 165.679 136.859 177.067 146.534C178.552 147.759 180.182 148.794 181.921 149.617C181.055 150.105 180.16 150.542 179.242 150.926L168.123 148.073L164.135 162.329C164.135 162.329 172.684 167.465 185.231 179.437C193.361 187.229 200.536 197.256 204.576 203.358Z" fill="white"/>
<path id="Vector_6" d="M126.952 172.752C122.4 176.452 111.576 170.186 113.855 177.591C116.134 184.997 123.355 191.117 116.327 192.896C109.298 194.676 105.315 186.988 103.319 191.545C101.323 196.103 107.306 200.655 103.888 203.503C101.826 205.222 95.7343 202.797 90.6545 200.914C96.0545 191.771 104.877 177.012 109.957 169.475C111.948 166.514 111.948 163.924 110.71 161.552C107.57 163.576 103.648 166.005 100.061 167.959C102.358 162.945 103.507 156.189 100.758 147.692C100.758 147.692 96.6194 124.482 100.47 121.497C104.321 118.512 104.458 136.586 107.306 136.303C110.155 136.021 107.876 124.063 116.134 126.619C124.391 129.176 111.863 139.721 114.137 144.274C116.411 148.826 129.231 134.594 132.079 143.422C134.927 152.249 118.982 158.797 121.543 161.646C124.104 164.494 131.509 169.046 126.952 172.752Z" fill="white"/>
<path id="Vector_7" d="M118.097 208.824C124.146 195.802 140.695 158.845 137.903 150.658C134.48 140.682 117.376 105.613 117.376 105.613L145.03 102.19C145.03 102.19 143.034 127.279 147.883 149.806C151.744 167.762 167.755 197.506 174.083 208.824H118.097Z" fill="#757575"/>
<path id="Vector_8" d="M178.329 136.275C178.329 136.275 181.799 136.896 183.781 136.402C185.763 135.908 186.756 136.402 189.355 136.524C191.954 136.647 194.807 134.787 195.179 136.153C195.551 137.518 195.056 138.878 192.453 139.994C189.849 141.11 190.471 141.11 185.391 140.86C180.311 140.611 175.109 137.019 178.329 136.275Z" fill="white"/>
<path id="Vector_9" d="M150.162 151.802C150.162 151.802 158.165 153.511 160.712 152.941C163.259 152.371 171.54 150.658 171.54 150.658L174.676 152.654L180.094 160.069C180.094 160.069 185.226 164.061 187.509 163.491C189.793 162.922 186.365 160.926 184.087 158.642C181.808 156.359 179.238 150.945 179.238 150.945C179.238 150.945 186.652 157.216 187.509 158.355C188.366 159.494 190.358 162.065 192.354 163.491C194.35 164.918 196.487 164.433 195.918 163.284C195.348 162.136 193.78 158.642 193.211 157.785C192.641 156.929 183.508 148.662 183.508 148.662L189.209 150.945C189.209 150.945 195.329 158.44 199.872 157.588C202.01 157.188 193.484 148.643 192.062 147.809C190.64 146.976 186.088 142.975 186.088 142.975L194.336 144.957C194.336 144.957 197.033 147.612 197.885 149.038C198.738 150.465 201.751 150.945 200.894 148.949C200.037 146.953 196.614 140.945 195.475 140.395C194.336 139.844 193.479 140.112 187.778 138.982C182.076 137.852 170.1 132.424 167.534 134.138C164.968 135.852 152.436 142.975 152.436 142.975C152.436 142.975 141.316 145.258 117.08 145.258C92.8436 145.258 89.7081 143.845 83.1501 148.106C76.592 152.367 75.1702 166.354 93.7004 167.493C112.231 168.632 150.162 151.802 150.162 151.802Z" fill="white"/>
<path id="Vector_10" d="M143.962 14.4498C143.962 14.4498 114.58 -2.65861 110.018 1.90331C105.456 6.46523 110.875 9.3182 109.448 13.0374C108.022 16.7566 90.918 36.7039 84.9296 45.8277C78.9412 54.9515 91.5206 66.7542 114.589 73.397C137.658 80.0398 162.167 74.2491 165.905 68.449C176.46 52.0562 151.353 39.2602 152.205 32.1419C153.057 25.0236 149.936 18.7245 143.962 14.4498Z" fill="#757575"/>
<path id="Vector_11" d="M134.197 47.7343C134.197 47.7343 130.775 67.1213 133.341 77.3938C134.842 83.3964 139.659 87.8641 143.382 92.5343C146.89 96.9362 147.916 103.301 145.68 108.508C143.519 113.531 138.797 115.998 133.439 115.824C122.141 115.452 106.36 105.938 112.551 92.7933C117.113 83.0998 119.678 71.1371 119.678 66.2739C119.678 61.4106 132.192 42.6027 134.197 47.7343Z" fill="white"/>
<path id="Vector_12" d="M143.02 56.5711C143.02 56.5711 136.749 59.424 134.466 61.133C132.183 62.842 128.482 63.1291 127.338 65.9821C126.194 68.8351 126.769 74.5363 125.629 77.9542C124.49 81.3721 128.482 77.9542 129.052 75.9581C129.621 73.9619 129.904 70.8265 130.761 69.4047C131.618 67.9829 135.892 65.9821 135.892 65.9821C134.93 67.7952 134.166 69.7066 133.614 71.6833C132.757 74.8188 130.761 81.0991 130.191 81.9465C129.621 82.7939 132.187 83.3588 133.327 81.664C134.466 79.9692 137.032 73.3923 137.319 72.5402C137.606 71.688 141.881 65.1253 141.881 65.1253C141.881 65.1253 139.885 71.4009 139.597 74.8188C139.31 78.2367 137.032 82.5161 139.315 81.3768C141.598 80.2375 143.02 77.9542 143.307 76.5324C143.594 75.1107 145.586 66.8389 145.586 66.8389L148.721 64.2731C148.326 66.8746 147.755 69.4463 147.012 71.9705C145.873 75.6756 144.447 76.8149 145.6 77.1021C146.753 77.3893 149.592 74.5363 150.162 72.5402C150.732 70.544 150.303 66.8248 152.158 65.6949C153.57 64.824 157.596 61.7168 158.999 56.5711C160.086 52.6071 161.282 53.1532 161.282 53.1532C161.282 53.1532 160.995 71.4009 159.87 85.0819C158.744 98.763 154.168 124.713 156.734 130.701C159.3 136.69 172.129 140.964 177.548 131.84C182.966 122.717 179.826 112.453 174.982 91.3528C170.137 70.2521 166.715 45.4511 163.862 44.0246C161.009 42.5981 155.863 43.1678 143.02 56.5711Z" fill="white"/>
<path id="Vector_13" d="M139.998 42.226C139.998 57.5595 132.018 70.0306 122.108 70.3461C121.981 70.3461 121.849 70.3461 121.717 70.3461C111.609 70.3461 103.417 57.7525 103.417 42.2166C103.417 26.6806 111.609 14.0918 121.717 14.0918C131.825 14.0918 139.998 26.69 139.998 42.226Z" fill="white"/>
<path id="Vector_14" d="M122.094 70.3368C121.966 70.3368 121.835 70.3368 121.703 70.3368C111.595 70.3368 103.403 57.7433 103.403 42.2073C103.403 26.6713 111.595 14.0825 121.703 14.0825C118.221 17.0779 115.72 21.0505 114.523 25.485C112.527 32.8999 112.527 51.43 112.527 51.43L119.951 52.0091C119.951 52.0091 120.794 62.8843 122.094 70.3368Z" fill="#2B9FFF"/>
<path id="Vector_15" d="M121.651 38.1871C121.651 38.1871 118.422 35.1552 118.662 32.853C118.902 30.5509 123.963 27.6744 128.548 28.5406C133.134 29.4069 138.689 34.3219 133.92 38.1871C129.151 42.0522 121.651 38.1871 121.651 38.1871Z" fill="#757575"/>
<path id="Vector_16" d="M121.651 38.4598C121.651 38.4598 118.422 35.9176 118.662 33.992C118.902 32.0665 123.963 29.6514 128.548 30.3764C133.134 31.1014 138.68 35.2255 133.91 38.4598C129.141 41.6941 121.651 38.4598 121.651 38.4598Z" fill="#2B9FFF"/>
<path id="Vector_17" d="M133.91 38.46C133.91 38.46 131.166 41.4542 127.79 41.4542C124.415 41.4542 121.67 38.46 121.67 38.46C121.67 38.46 124.415 35.4658 127.79 35.4658C131.166 35.4658 133.91 38.46 133.91 38.46Z" fill="white"/>
<path id="Vector_18" d="M143.359 37.4287C143.359 37.4287 146.965 13.009 151.65 11.7943C156.334 10.5797 156.287 23.2156 156.287 23.2156C156.287 23.2156 159.173 8.42351 163.989 8.55062C168.805 8.67773 165.773 17.3637 165.773 17.3637C165.773 17.3637 174.939 5.29748 178.842 9.74171C182.745 14.1859 164.832 25.8426 164.832 25.8426C164.832 25.8426 173.424 22.4341 174.431 30.2633C175.439 38.0925 157.214 35.5408 157.214 35.5408C157.214 35.5408 164.064 36.2376 164.309 40.3146C164.554 44.3916 143.359 37.4287 143.359 37.4287Z" fill="white"/>
<path id="Vector_19" d="M164.309 40.3148C164.093 36.7322 158.787 35.7576 157.497 35.574C159.785 35.8565 175.363 37.5042 174.445 30.2494C173.438 22.4202 164.846 25.8287 164.846 25.8287C164.846 25.8287 182.759 14.1532 178.856 9.72784L178.729 9.59131C165.274 24.294 143.373 37.4289 143.373 37.4289C143.373 37.4289 164.559 44.3871 164.309 40.3148Z" fill="#2B9FFF"/>
</g>
<g id="Plant">
<path id="Vector_20" d="M209.076 193.245C209.076 193.245 209.288 192.459 209.298 192.407C209.382 191.814 209.189 190.618 208.587 190.326C208.485 190.28 208.375 190.256 208.264 190.255C208.153 190.254 208.043 190.277 207.941 190.321C207.839 190.365 207.747 190.431 207.672 190.512C207.597 190.594 207.539 190.691 207.504 190.797C207.45 191.032 207.447 191.277 207.497 191.513C207.546 191.75 207.647 191.973 207.791 192.167C208.165 192.586 208.598 192.95 209.076 193.245Z" fill="black"/>
<path id="Vector_21" d="M197.161 192.991C197.703 193.132 198.263 193.194 198.823 193.174C198.823 193.174 198.568 192.402 198.545 192.355C198.286 191.814 197.471 190.919 196.803 191.009C196.693 191.027 196.588 191.068 196.495 191.13C196.402 191.192 196.323 191.272 196.263 191.366C196.203 191.46 196.163 191.566 196.147 191.676C196.13 191.787 196.137 191.899 196.167 192.007C196.252 192.233 196.384 192.438 196.556 192.608C196.727 192.778 196.934 192.908 197.161 192.991Z" fill="black"/>
<path id="Vector_22" d="M197.561 196.404C198.115 196.398 198.665 196.311 199.194 196.145C199.367 196.747 199.581 197.337 199.835 197.91C199.976 198.245 200.136 198.579 200.305 198.913C200.206 198.772 200.122 198.645 200.108 198.631C199.717 198.16 198.695 197.529 198.074 197.793C197.972 197.838 197.881 197.905 197.806 197.989C197.732 198.073 197.676 198.171 197.643 198.278C197.61 198.385 197.599 198.498 197.613 198.609C197.626 198.72 197.663 198.827 197.721 198.922C197.862 199.118 198.044 199.281 198.255 199.4C198.465 199.519 198.699 199.59 198.94 199.61C199.478 199.61 200.013 199.527 200.527 199.365C200.593 199.492 200.654 199.619 200.715 199.746C201.021 200.349 201.327 200.956 201.609 201.554C201.713 201.766 201.802 201.983 201.892 202.194C201.807 202.067 201.737 201.964 201.722 201.95C201.327 201.479 200.31 200.848 199.684 201.112C199.583 201.159 199.493 201.226 199.419 201.31C199.346 201.394 199.291 201.493 199.258 201.599C199.225 201.706 199.215 201.818 199.229 201.928C199.242 202.039 199.278 202.146 199.336 202.242C199.477 202.438 199.659 202.601 199.869 202.72C200.08 202.839 200.314 202.91 200.555 202.929C201.079 202.931 201.6 202.852 202.099 202.693C202.188 202.915 202.273 203.136 202.349 203.353C202.424 203.569 202.452 203.644 202.49 203.795L202.617 204.242C202.683 204.53 202.758 204.826 202.819 205.109C202.862 205.302 202.899 205.49 202.937 205.678C202.843 205.466 202.64 205.052 202.622 205.024C202.301 204.515 201.388 203.72 200.738 203.889C200.631 203.919 200.531 203.971 200.445 204.042C200.359 204.113 200.289 204.202 200.24 204.302C200.19 204.402 200.163 204.511 200.159 204.623C200.155 204.734 200.174 204.845 200.216 204.949C200.325 205.164 200.481 205.353 200.671 205.502C200.861 205.65 201.082 205.756 201.318 205.81C201.864 205.895 202.419 205.895 202.965 205.81C203.025 206.124 203.081 206.425 203.135 206.714C203.309 207.712 203.422 208.545 203.488 209.129H203.959V209.077C203.879 208.489 203.752 207.665 203.549 206.643C203.488 206.323 203.413 205.989 203.337 205.641C203.652 205.516 203.959 205.371 204.255 205.207C204.66 205.555 205.11 205.847 205.592 206.074C205.475 206.366 205.357 206.653 205.239 206.921C204.834 207.863 204.462 208.607 204.199 209.129H204.698C204.947 208.607 205.263 207.91 205.606 207.077C205.729 206.775 205.851 206.455 205.978 206.135C206.516 206.263 207.07 206.306 207.621 206.262C207.86 206.225 208.088 206.136 208.288 206.002C208.489 205.868 208.658 205.691 208.784 205.485C208.833 205.385 208.861 205.276 208.865 205.164C208.868 205.053 208.849 204.942 208.807 204.838C208.766 204.735 208.702 204.641 208.622 204.564C208.542 204.486 208.446 204.426 208.342 204.388C207.706 204.172 206.736 204.897 206.378 205.382L206.044 205.956L206.2 205.546C206.298 205.269 206.393 204.991 206.491 204.69C206.539 204.544 206.581 204.398 206.628 204.247C206.675 204.096 206.703 203.936 206.746 203.776C206.83 203.414 206.901 203.042 206.962 202.665C207.461 202.86 207.986 202.981 208.521 203.023C208.762 203.021 209 202.968 209.219 202.865C209.437 202.763 209.631 202.614 209.787 202.43C209.851 202.339 209.896 202.235 209.917 202.125C209.939 202.016 209.937 201.903 209.912 201.794C209.887 201.686 209.84 201.583 209.773 201.494C209.706 201.405 209.621 201.331 209.523 201.276C208.925 200.966 207.852 201.535 207.428 201.959C207.405 201.987 207.132 202.322 206.986 202.51C207.023 202.284 207.061 202.039 207.089 201.827C207.169 201.163 207.231 200.485 207.297 199.812C207.32 199.605 207.339 199.398 207.362 199.191C207.877 199.398 208.42 199.525 208.973 199.567C209.214 199.568 209.453 199.515 209.672 199.412C209.891 199.31 210.084 199.16 210.239 198.974C210.303 198.883 210.347 198.78 210.368 198.67C210.389 198.561 210.387 198.448 210.362 198.34C210.337 198.231 210.289 198.13 210.221 198.041C210.154 197.952 210.068 197.879 209.971 197.826C209.373 197.515 208.304 198.084 207.88 198.508C207.847 198.541 207.457 199.026 207.367 199.153C207.414 198.682 207.466 198.249 207.537 197.807C207.627 197.207 207.756 196.614 207.923 196.032C208.44 196.239 208.986 196.368 209.542 196.413C209.784 196.412 210.022 196.358 210.24 196.255C210.459 196.153 210.653 196.004 210.809 195.82C210.873 195.728 210.917 195.624 210.938 195.515C210.959 195.405 210.957 195.292 210.932 195.183C210.906 195.075 210.858 194.972 210.791 194.883C210.724 194.794 210.638 194.72 210.54 194.667C209.942 194.361 208.874 194.925 208.45 195.349C208.422 195.377 208.125 195.749 207.979 195.928H207.942C208.129 195.348 208.366 194.784 208.648 194.243C208.798 193.946 208.963 193.668 209.118 193.4C209.598 193.66 210.116 193.843 210.653 193.942C210.895 193.965 211.138 193.935 211.367 193.853C211.596 193.772 211.804 193.641 211.976 193.471C212.05 193.387 212.105 193.289 212.138 193.182C212.171 193.076 212.182 192.964 212.168 192.853C212.155 192.742 212.118 192.636 212.061 192.54C212.003 192.445 211.926 192.362 211.835 192.299C211.275 191.927 210.15 192.374 209.683 192.746C209.655 192.746 209.42 193 209.25 193.174L209.476 192.821C209.759 192.397 210.041 192.025 210.295 191.701C210.441 191.517 210.578 191.352 210.705 191.202C211.247 191.208 211.787 191.13 212.306 190.971C212.53 190.884 212.733 190.748 212.9 190.574C213.067 190.4 213.193 190.192 213.271 189.963C213.298 189.855 213.303 189.742 213.283 189.632C213.264 189.522 213.222 189.417 213.159 189.325C213.096 189.232 213.015 189.154 212.919 189.095C212.824 189.037 212.718 188.999 212.607 188.984C211.938 188.914 211.148 189.827 210.903 190.397C210.903 190.444 210.639 191.22 210.649 191.22L210.248 191.691C209.985 192.011 209.693 192.379 209.401 192.798C209.082 193.251 208.79 193.723 208.525 194.21C208.228 194.748 207.979 195.313 207.781 195.895V195.919C207.781 195.721 207.781 195.17 207.781 195.128C207.706 194.535 207.207 193.428 206.543 193.306C206.433 193.289 206.321 193.296 206.214 193.326C206.106 193.355 206.006 193.407 205.92 193.477C205.834 193.548 205.764 193.636 205.714 193.735C205.664 193.835 205.635 193.943 205.63 194.055C205.645 194.283 205.707 194.506 205.814 194.708C205.92 194.911 206.067 195.089 206.247 195.232C206.71 195.537 207.218 195.769 207.753 195.919C207.568 196.518 207.42 197.128 207.311 197.746C207.249 198.103 207.193 198.471 207.146 198.833C207.146 198.664 207.146 198.513 207.146 198.489C207.071 197.896 206.572 196.795 205.912 196.672C205.802 196.654 205.689 196.66 205.581 196.688C205.472 196.717 205.372 196.769 205.285 196.84C205.198 196.91 205.127 196.999 205.077 197.099C205.027 197.199 204.999 197.309 204.994 197.421C205.004 197.661 205.066 197.897 205.176 198.112C205.285 198.326 205.44 198.515 205.63 198.664C206.081 198.961 206.575 199.188 207.094 199.337C207.094 199.478 207.056 199.615 207.042 199.756C206.958 200.429 206.882 201.102 206.788 201.761C206.755 201.992 206.713 202.232 206.67 202.449C206.67 202.298 206.67 202.171 206.67 202.152C206.595 201.554 206.096 200.453 205.437 200.33C205.325 200.308 205.209 200.311 205.098 200.338C204.987 200.365 204.883 200.416 204.794 200.487C204.704 200.559 204.631 200.648 204.58 200.75C204.528 200.852 204.499 200.964 204.495 201.079C204.504 201.32 204.566 201.556 204.676 201.77C204.786 201.985 204.941 202.173 205.131 202.322C205.565 202.613 206.041 202.835 206.543 202.981C206.491 203.211 206.444 203.451 206.388 203.668C206.331 203.885 206.313 203.965 206.261 204.115L206.12 204.558C206.016 204.836 205.917 205.123 205.809 205.391L205.597 205.932C205.63 205.702 205.691 205.25 205.696 205.212C205.687 204.685 205.545 204.168 205.282 203.71C205.286 203.651 205.286 203.591 205.282 203.531C205.267 203.421 205.23 203.315 205.172 203.22C205.115 203.125 205.038 203.043 204.946 202.98C204.855 202.916 204.751 202.872 204.642 202.852C204.533 202.831 204.42 202.833 204.312 202.858C203.662 203.032 203.252 204.172 203.22 204.77C203.22 204.807 203.243 205.193 203.262 205.433L203.163 205.01C203.092 204.723 203.017 204.44 202.937 204.134C202.89 203.988 202.848 203.837 202.801 203.687C202.753 203.536 202.697 203.386 202.645 203.216C202.518 202.863 202.367 202.515 202.212 202.166C202.737 202.056 203.241 201.867 203.709 201.606C203.911 201.472 204.081 201.296 204.207 201.089C204.333 200.883 204.412 200.651 204.439 200.41C204.442 200.299 204.421 200.187 204.378 200.084C204.336 199.981 204.271 199.888 204.19 199.812C204.109 199.735 204.012 199.677 203.906 199.64C203.801 199.604 203.689 199.59 203.577 199.6C202.914 199.671 202.334 200.735 202.212 201.323C202.212 201.361 202.165 201.794 202.146 202.03C202.052 201.818 201.958 201.611 201.854 201.404C201.558 200.801 201.233 200.203 200.913 199.605C200.814 199.422 200.72 199.238 200.625 199.05C201.169 198.94 201.691 198.746 202.174 198.475C202.376 198.343 202.546 198.167 202.673 197.961C202.799 197.755 202.878 197.524 202.904 197.284C202.907 197.173 202.887 197.062 202.844 196.959C202.801 196.856 202.738 196.763 202.657 196.686C202.576 196.609 202.48 196.551 202.375 196.513C202.27 196.476 202.158 196.461 202.047 196.47C201.379 196.545 200.8 197.609 200.677 198.193C200.677 198.24 200.611 198.861 200.607 199.017C200.395 198.612 200.192 198.207 200.004 197.802C199.749 197.252 199.531 196.686 199.35 196.107C199.894 195.992 200.419 195.799 200.908 195.533C201.11 195.399 201.28 195.223 201.406 195.016C201.532 194.809 201.611 194.578 201.638 194.337C201.641 194.226 201.62 194.115 201.578 194.012C201.535 193.909 201.471 193.816 201.39 193.739C201.31 193.662 201.214 193.603 201.109 193.566C201.004 193.529 200.892 193.514 200.781 193.523C200.112 193.598 199.533 194.662 199.411 195.25C199.411 195.288 199.359 195.759 199.345 195.985H199.307C199.141 195.398 199.026 194.798 198.964 194.191C198.926 193.857 198.912 193.537 198.898 193.226C199.441 193.174 199.973 193.039 200.475 192.826C200.69 192.715 200.878 192.559 201.026 192.368C201.174 192.177 201.278 191.955 201.332 191.719C201.347 191.609 201.339 191.497 201.308 191.389C201.277 191.282 201.224 191.183 201.152 191.098C201.08 191.012 200.991 190.943 200.89 190.895C200.79 190.846 200.68 190.819 200.569 190.816C199.896 190.816 199.204 191.809 199.02 192.383C199.02 192.412 198.94 192.741 198.898 192.976C198.898 192.835 198.898 192.689 198.898 192.557C198.898 192.049 198.931 191.583 198.964 191.169C198.964 190.938 199.006 190.726 199.03 190.528C199.485 190.234 199.893 189.872 200.239 189.455C200.378 189.257 200.472 189.032 200.515 188.795C200.558 188.558 200.549 188.314 200.489 188.08C200.454 187.973 200.396 187.874 200.32 187.791C200.244 187.708 200.151 187.642 200.047 187.597C199.943 187.553 199.831 187.531 199.718 187.533C199.605 187.535 199.494 187.561 199.392 187.609C198.799 187.92 198.639 189.121 198.738 189.714C198.738 189.761 198.973 190.547 198.982 190.542C198.954 190.731 198.931 190.933 198.907 191.159C198.865 191.569 198.822 192.035 198.813 192.543C198.793 193.093 198.806 193.643 198.851 194.191C198.898 194.805 199.001 195.413 199.157 196.008C199.157 196.008 199.157 196.008 199.157 196.032C199.053 195.862 198.742 195.41 198.714 195.377C198.323 194.907 197.302 194.281 196.676 194.539C196.574 194.586 196.484 194.654 196.411 194.738C196.338 194.822 196.283 194.92 196.25 195.027C196.217 195.133 196.207 195.246 196.22 195.356C196.234 195.467 196.27 195.574 196.327 195.669C196.464 195.877 196.646 196.051 196.86 196.178C197.073 196.305 197.313 196.382 197.561 196.404Z" fill="black"/>
<path id="Vector_23" opacity="0.3" d="M197.161 192.991C197.703 193.132 198.263 193.194 198.823 193.174C198.823 193.174 198.568 192.402 198.545 192.355C198.286 191.814 197.471 190.919 196.803 191.009C196.693 191.027 196.588 191.068 196.495 191.13C196.402 191.192 196.323 191.272 196.263 191.366C196.203 191.46 196.163 191.566 196.147 191.676C196.13 191.787 196.137 191.899 196.167 192.007C196.252 192.233 196.384 192.438 196.556 192.608C196.727 192.778 196.934 192.908 197.161 192.991Z" fill="black"/>
<path id="Vector_24" opacity="0.3" d="M209.076 193.245C209.076 193.245 209.288 192.459 209.298 192.407C209.382 191.814 209.189 190.618 208.587 190.326C208.485 190.28 208.375 190.256 208.264 190.255C208.153 190.254 208.043 190.277 207.941 190.321C207.839 190.365 207.747 190.431 207.672 190.512C207.597 190.594 207.539 190.691 207.504 190.797C207.45 191.032 207.447 191.277 207.497 191.513C207.546 191.75 207.647 191.973 207.791 192.167C208.165 192.586 208.598 192.95 209.076 193.245Z" fill="black"/>
<path id="Vector_25" opacity="0.3" d="M197.561 196.404C198.115 196.398 198.665 196.311 199.194 196.145C199.367 196.747 199.581 197.337 199.835 197.91C199.976 198.245 200.136 198.579 200.305 198.913C200.206 198.772 200.122 198.645 200.108 198.631C199.717 198.16 198.695 197.529 198.074 197.793C197.972 197.838 197.881 197.905 197.806 197.989C197.732 198.073 197.676 198.171 197.643 198.278C197.61 198.385 197.599 198.498 197.613 198.609C197.626 198.72 197.663 198.827 197.721 198.922C197.862 199.118 198.044 199.281 198.255 199.4C198.465 199.519 198.699 199.59 198.94 199.61C199.478 199.61 200.013 199.527 200.527 199.365C200.593 199.492 200.654 199.619 200.715 199.746C201.021 200.349 201.327 200.956 201.609 201.554C201.713 201.766 201.802 201.983 201.892 202.194C201.807 202.067 201.737 201.964 201.722 201.95C201.327 201.479 200.31 200.848 199.684 201.112C199.583 201.159 199.493 201.226 199.419 201.31C199.346 201.394 199.291 201.493 199.258 201.599C199.225 201.706 199.215 201.818 199.229 201.928C199.242 202.039 199.278 202.146 199.336 202.242C199.477 202.438 199.659 202.601 199.869 202.72C200.08 202.839 200.314 202.91 200.555 202.929C201.079 202.931 201.6 202.852 202.099 202.693C202.188 202.915 202.273 203.136 202.349 203.353C202.424 203.569 202.452 203.644 202.49 203.795L202.617 204.242C202.683 204.53 202.758 204.826 202.819 205.109C202.862 205.302 202.899 205.49 202.937 205.678C202.843 205.466 202.64 205.052 202.622 205.024C202.301 204.515 201.388 203.72 200.738 203.889C200.631 203.919 200.531 203.971 200.445 204.042C200.359 204.113 200.289 204.202 200.24 204.302C200.19 204.402 200.163 204.511 200.159 204.623C200.155 204.734 200.174 204.845 200.216 204.949C200.325 205.164 200.481 205.353 200.671 205.502C200.861 205.65 201.082 205.756 201.318 205.81C201.864 205.895 202.419 205.895 202.965 205.81C203.025 206.124 203.081 206.425 203.135 206.714C203.309 207.712 203.422 208.545 203.488 209.129H203.959V209.077C203.879 208.489 203.752 207.665 203.549 206.643C203.488 206.323 203.413 205.989 203.337 205.641C203.652 205.516 203.959 205.371 204.255 205.207C204.66 205.555 205.11 205.847 205.592 206.074C205.475 206.366 205.357 206.653 205.239 206.921C204.834 207.863 204.462 208.607 204.199 209.129H204.698C204.947 208.607 205.263 207.91 205.606 207.077C205.729 206.775 205.851 206.455 205.978 206.135C206.516 206.263 207.07 206.306 207.621 206.262C207.86 206.225 208.088 206.136 208.288 206.002C208.489 205.868 208.658 205.691 208.784 205.485C208.833 205.385 208.861 205.276 208.865 205.164C208.868 205.053 208.849 204.942 208.807 204.838C208.766 204.735 208.702 204.641 208.622 204.564C208.542 204.486 208.446 204.426 208.342 204.388C207.706 204.172 206.736 204.897 206.378 205.382L206.044 205.956L206.2 205.546C206.298 205.269 206.393 204.991 206.491 204.69C206.539 204.544 206.581 204.398 206.628 204.247C206.675 204.096 206.703 203.936 206.746 203.776C206.83 203.414 206.901 203.042 206.962 202.665C207.461 202.86 207.986 202.981 208.521 203.023C208.762 203.021 209 202.968 209.219 202.865C209.437 202.763 209.631 202.614 209.787 202.43C209.851 202.339 209.896 202.235 209.917 202.125C209.939 202.016 209.937 201.903 209.912 201.794C209.887 201.686 209.84 201.583 209.773 201.494C209.706 201.405 209.621 201.331 209.523 201.276C208.925 200.966 207.852 201.535 207.428 201.959C207.405 201.987 207.132 202.322 206.986 202.51C207.023 202.284 207.061 202.039 207.089 201.827C207.169 201.163 207.231 200.485 207.297 199.812C207.32 199.605 207.339 199.398 207.362 199.191C207.877 199.398 208.42 199.525 208.973 199.567C209.214 199.568 209.453 199.515 209.672 199.412C209.891 199.31 210.084 199.16 210.239 198.974C210.303 198.883 210.347 198.78 210.368 198.67C210.389 198.561 210.387 198.448 210.362 198.34C210.337 198.231 210.289 198.13 210.221 198.041C210.154 197.952 210.068 197.879 209.971 197.826C209.373 197.515 208.304 198.084 207.88 198.508C207.847 198.541 207.457 199.026 207.367 199.153C207.414 198.682 207.466 198.249 207.537 197.807C207.627 197.207 207.756 196.614 207.923 196.032C208.44 196.239 208.986 196.368 209.542 196.413C209.784 196.412 210.022 196.358 210.24 196.255C210.459 196.153 210.653 196.004 210.809 195.82C210.873 195.728 210.917 195.624 210.938 195.515C210.959 195.405 210.957 195.292 210.932 195.183C210.906 195.075 210.858 194.972 210.791 194.883C210.724 194.794 210.638 194.72 210.54 194.667C209.942 194.361 208.874 194.925 208.45 195.349C208.422 195.377 208.125 195.749 207.979 195.928H207.942C208.129 195.348 208.366 194.784 208.648 194.243C208.798 193.946 208.963 193.668 209.118 193.4C209.598 193.66 210.116 193.843 210.653 193.942C210.895 193.965 211.138 193.935 211.367 193.853C211.596 193.772 211.804 193.641 211.976 193.471C212.05 193.387 212.105 193.289 212.138 193.182C212.171 193.076 212.182 192.964 212.168 192.853C212.155 192.742 212.118 192.636 212.061 192.54C212.003 192.445 211.926 192.362 211.835 192.299C211.275 191.927 210.15 192.374 209.683 192.746C209.655 192.746 209.42 193 209.25 193.174L209.476 192.821C209.759 192.397 210.041 192.025 210.295 191.701C210.441 191.517 210.578 191.352 210.705 191.202C211.247 191.208 211.787 191.13 212.306 190.971C212.53 190.884 212.733 190.748 212.9 190.574C213.067 190.4 213.193 190.192 213.271 189.963C213.298 189.855 213.303 189.742 213.283 189.632C213.264 189.522 213.222 189.417 213.159 189.325C213.096 189.232 213.015 189.154 212.919 189.095C212.824 189.037 212.718 188.999 212.607 188.984C211.938 188.914 211.148 189.827 210.903 190.397C210.903 190.444 210.639 191.22 210.649 191.22L210.248 191.691C209.985 192.011 209.693 192.379 209.401 192.798C209.082 193.251 208.79 193.723 208.525 194.21C208.228 194.748 207.979 195.313 207.781 195.895V195.919C207.781 195.721 207.781 195.17 207.781 195.128C207.706 194.535 207.207 193.428 206.543 193.306C206.433 193.289 206.321 193.296 206.214 193.326C206.106 193.355 206.006 193.407 205.92 193.477C205.834 193.548 205.764 193.636 205.714 193.735C205.664 193.835 205.635 193.943 205.63 194.055C205.645 194.283 205.707 194.506 205.814 194.708C205.92 194.911 206.067 195.089 206.247 195.232C206.71 195.537 207.218 195.769 207.753 195.919C207.568 196.518 207.42 197.128 207.311 197.746C207.249 198.103 207.193 198.471 207.146 198.833C207.146 198.664 207.146 198.513 207.146 198.489C207.071 197.896 206.572 196.795 205.912 196.672C205.802 196.654 205.689 196.66 205.581 196.688C205.472 196.717 205.372 196.769 205.285 196.84C205.198 196.91 205.127 196.999 205.077 197.099C205.027 197.199 204.999 197.309 204.994 197.421C205.004 197.661 205.066 197.897 205.176 198.112C205.285 198.326 205.44 198.515 205.63 198.664C206.081 198.961 206.575 199.188 207.094 199.337C207.094 199.478 207.056 199.615 207.042 199.756C206.958 200.429 206.882 201.102 206.788 201.761C206.755 201.992 206.713 202.232 206.67 202.449C206.67 202.298 206.67 202.171 206.67 202.152C206.595 201.554 206.096 200.453 205.437 200.33C205.325 200.308 205.209 200.311 205.098 200.338C204.987 200.365 204.883 200.416 204.794 200.487C204.704 200.559 204.631 200.648 204.58 200.75C204.528 200.852 204.499 200.964 204.495 201.079C204.504 201.32 204.566 201.556 204.676 201.77C204.786 201.985 204.941 202.173 205.131 202.322C205.565 202.613 206.041 202.835 206.543 202.981C206.491 203.211 206.444 203.451 206.388 203.668C206.331 203.885 206.313 203.965 206.261 204.115L206.12 204.558C206.016 204.836 205.917 205.123 205.809 205.391L205.597 205.932C205.63 205.702 205.691 205.25 205.696 205.212C205.687 204.685 205.545 204.168 205.282 203.71C205.286 203.651 205.286 203.591 205.282 203.531C205.267 203.421 205.23 203.315 205.172 203.22C205.115 203.125 205.038 203.043 204.946 202.98C204.855 202.916 204.751 202.872 204.642 202.852C204.533 202.831 204.42 202.833 204.312 202.858C203.662 203.032 203.252 204.172 203.22 204.77C203.22 204.807 203.243 205.193 203.262 205.433L203.163 205.01C203.092 204.723 203.017 204.44 202.937 204.134C202.89 203.988 202.848 203.837 202.801 203.687C202.753 203.536 202.697 203.386 202.645 203.216C202.518 202.863 202.367 202.515 202.212 202.166C202.737 202.056 203.241 201.867 203.709 201.606C203.911 201.472 204.081 201.296 204.207 201.089C204.333 200.883 204.412 200.651 204.439 200.41C204.442 200.299 204.421 200.187 204.378 200.084C204.336 199.981 204.271 199.888 204.19 199.812C204.109 199.735 204.012 199.677 203.906 199.64C203.801 199.604 203.689 199.59 203.577 199.6C202.914 199.671 202.334 200.735 202.212 201.323C202.212 201.361 202.165 201.794 202.146 202.03C202.052 201.818 201.958 201.611 201.854 201.404C201.558 200.801 201.233 200.203 200.913 199.605C200.814 199.422 200.72 199.238 200.625 199.05C201.169 198.94 201.691 198.746 202.174 198.475C202.376 198.343 202.546 198.167 202.673 197.961C202.799 197.755 202.878 197.524 202.904 197.284C202.907 197.173 202.887 197.062 202.844 196.959C202.801 196.856 202.738 196.763 202.657 196.686C202.576 196.609 202.48 196.551 202.375 196.513C202.27 196.476 202.158 196.461 202.047 196.47C201.379 196.545 200.8 197.609 200.677 198.193C200.677 198.24 200.611 198.861 200.607 199.017C200.395 198.612 200.192 198.207 200.004 197.802C199.749 197.252 199.531 196.686 199.35 196.107C199.894 195.992 200.419 195.799 200.908 195.533C201.11 195.399 201.28 195.223 201.406 195.016C201.532 194.809 201.611 194.578 201.638 194.337C201.641 194.226 201.62 194.115 201.578 194.012C201.535 193.909 201.471 193.816 201.39 193.739C201.31 193.662 201.214 193.603 201.109 193.566C201.004 193.529 200.892 193.514 200.781 193.523C200.112 193.598 199.533 194.662 199.411 195.25C199.411 195.288 199.359 195.759 199.345 195.985H199.307C199.141 195.398 199.026 194.798 198.964 194.191C198.926 193.857 198.912 193.537 198.898 193.226C199.441 193.174 199.973 193.039 200.475 192.826C200.69 192.715 200.878 192.559 201.026 192.368C201.174 192.177 201.278 191.955 201.332 191.719C201.347 191.609 201.339 191.497 201.308 191.389C201.277 191.282 201.224 191.183 201.152 191.098C201.08 191.012 200.991 190.943 200.89 190.895C200.79 190.846 200.68 190.819 200.569 190.816C199.896 190.816 199.204 191.809 199.02 192.383C199.02 192.412 198.94 192.741 198.898 192.976C198.898 192.835 198.898 192.689 198.898 192.557C198.898 192.049 198.931 191.583 198.964 191.169C198.964 190.938 199.006 190.726 199.03 190.528C199.485 190.234 199.893 189.872 200.239 189.455C200.378 189.257 200.472 189.032 200.515 188.795C200.558 188.558 200.549 188.314 200.489 188.08C200.454 187.973 200.396 187.874 200.32 187.791C200.244 187.708 200.151 187.642 200.047 187.597C199.943 187.553 199.831 187.531 199.718 187.533C199.605 187.535 199.494 187.561 199.392 187.609C198.799 187.92 198.639 189.121 198.738 189.714C198.738 189.761 198.973 190.547 198.982 190.542C198.954 190.731 198.931 190.933 198.907 191.159C198.865 191.569 198.822 192.035 198.813 192.543C198.793 193.093 198.806 193.643 198.851 194.191C198.898 194.805 199.001 195.413 199.157 196.008C199.157 196.008 199.157 196.008 199.157 196.032C199.053 195.862 198.742 195.41 198.714 195.377C198.323 194.907 197.302 194.281 196.676 194.539C196.574 194.586 196.484 194.654 196.411 194.738C196.338 194.822 196.283 194.92 196.25 195.027C196.217 195.133 196.207 195.246 196.22 195.356C196.234 195.467 196.27 195.574 196.327 195.669C196.464 195.877 196.646 196.051 196.86 196.178C197.073 196.305 197.313 196.382 197.561 196.404Z" fill="black"/>
</g>
<g id="paint-bucket">
<path id="Vector_26" opacity="0.27" d="M114.552 193.697H101.106V208.89H114.552V193.697Z" fill="black"/>
<path id="Vector_27" d="M121.52 191.654H106.737V208.823H121.52V191.654Z" fill="white"/>
<path id="Vector_28" d="M112.415 195.077H106.737V205.683H112.415V195.077Z" fill="white"/>
<path id="Vector_29" d="M119.25 191.654V199.389C119.25 199.639 119.151 199.878 118.975 200.055C118.798 200.231 118.558 200.33 118.309 200.33C118.059 200.33 117.82 200.231 117.643 200.055C117.466 199.878 117.367 199.639 117.367 199.389V193.937C117.37 193.799 117.345 193.662 117.293 193.533C117.242 193.405 117.166 193.288 117.069 193.189C116.972 193.091 116.857 193.012 116.729 192.959C116.602 192.905 116.465 192.878 116.327 192.878C116.051 192.878 115.786 192.987 115.591 193.183C115.396 193.378 115.286 193.642 115.286 193.918V196.498C115.286 196.695 115.208 196.885 115.068 197.024C114.929 197.164 114.74 197.242 114.542 197.242C114.345 197.242 114.156 197.164 114.016 197.024C113.877 196.885 113.799 196.695 113.799 196.498V191.654H119.25Z" fill="#2B9FFF"/>
</g>
<g id="Ladder">
<path id="Vector_30" opacity="0.27" d="M49.0654 163.138L49.1643 160.921H48.9948L46.8103 91.3149H21.1478L6.7417 208.974H10.1125L11.7273 194.587H46.8245L47.1258 208.974H50.5013L49.0654 163.138ZM46.655 186.409L41.9471 179.178H46.509L46.655 186.409ZM46.2831 168.726L43.044 163.764H46.1795L46.2831 168.726ZM23.0074 93.909H44.7153L44.9131 103.419H21.9434L23.0074 93.909ZM21.6845 105.726H44.9601L45.1814 116.083H20.5216L21.6845 105.726ZM20.3098 118.023V118.428H45.2615L45.511 130.324H18.9304L20.3098 118.023ZM18.6573 132.772H45.5298L45.7981 145.535H17.2261L18.6573 132.772ZM16.906 148.379H45.8546L46.1183 160.944H15.5172L16.906 148.379ZM15.1782 163.788H18.2054L14.6415 168.58L15.1782 163.788ZM14.3355 171.32L19.9284 163.788H41.3304L46.349 171.48L46.4525 176.358H13.7705L14.3355 171.32ZM13.4504 179.178H17.9135L12.6595 186.24L13.4504 179.178ZM12.038 191.743L12.3488 188.961L19.6318 179.178H40.2146L46.7115 189.135L46.768 191.743H12.038Z" fill="black"/>
<path id="Vector_31" d="M21.8728 189.314L20.677 188.504L27.4234 178.166L28.6192 178.975L21.8728 189.314Z" fill="white"/>
<path id="Vector_32" d="M56.6027 189.314L57.7232 188.504L50.04 178.166L48.9148 178.975L56.6027 189.314Z" fill="white"/>
<path id="Vector_33" d="M21.1431 173.316L19.9473 172.511L26.6936 162.173L27.8894 162.983L21.1431 173.316Z" fill="white"/>
<path id="Vector_34" d="M55.8776 173.316L56.9981 172.511L49.3102 162.173L48.1897 162.983L55.8776 173.316Z" fill="white"/>
<path id="Vector_35" d="M47.8319 105.726H22.1835L22.0752 103.419H47.7284L47.8319 105.726Z" fill="white"/>
<path id="Vector_36" d="M48.411 118.404H22.7626L22.6543 116.097H48.3027L48.411 118.404Z" fill="white"/>
<path id="Vector_37" d="M57.549 194.587H21.0678L20.9407 191.743H57.4172L57.549 194.587Z" fill="white"/>
<path id="Vector_38" d="M56.8476 179.178H20.3664L20.2393 176.334H56.7158L56.8476 179.178Z" fill="white"/>
<path id="Vector_39" d="M56.1462 163.764H19.665L19.5378 160.921H56.0144L56.1462 163.764Z" fill="white"/>
<path id="Vector_40" d="M53.7591 148.356H20.6487L20.5168 145.512H53.6273L53.7591 148.356Z" fill="white"/>
<path id="Vector_41" d="M51.7867 132.749H21.195L21.0867 130.301H51.6737L51.7867 132.749Z" fill="white"/>
<path id="Vector_42" d="M47.5495 91.3149H21.8869L18.2007 208.974H21.5715L23.9867 93.909H45.6899L58.5848 208.974H61.9603L47.5495 91.3149Z" fill="white"/>
</g>
</g>
</svg>
