<svg width="42" height="42" viewBox="0 0 42 42" fill="none" xmlns="http://www.w3.org/2000/svg">
<g id="simple-icons:fantom" clip-path="url(#clip0_448_50)">
<path id="Vector" d="M19.1799 0.40251C20.2019 -0.13474 21.7542 -0.13474 22.7762 0.40251L33.1922 5.87651C33.8064 6.19851 34.1442 6.68151 34.2054 7.17851H34.2142V34.692C34.202 35.2345 33.8607 35.7718 33.1922 36.1235L22.7762 41.5975C21.7542 42.1348 20.2019 42.1348 19.1799 41.5975L8.76395 36.1235C8.09895 35.7735 7.7787 35.231 7.76295 34.692C7.7614 34.6471 7.7614 34.6022 7.76295 34.5573V7.35526C7.762 7.32552 7.762 7.29575 7.76295 7.26601V7.17851H7.7682C7.8137 6.67451 8.1357 6.20551 8.7657 5.87651L19.1799 0.40251ZM32.5744 22.5278L22.7744 27.678C21.7542 28.2135 20.2019 28.2135 19.1799 27.678L9.4027 22.54V34.6378L19.1799 39.7478C19.7329 40.0418 20.3052 40.3288 20.8669 40.3655L20.9789 40.369C21.5617 40.369 22.1287 40.075 22.7044 39.7968L32.5744 34.594V22.5278ZM6.06895 34.0953C6.06895 35.147 6.19145 35.84 6.43645 36.3283C6.63945 36.7343 6.94395 37.0423 7.4987 37.4185L7.5302 37.4413C7.66841 37.5333 7.80843 37.6226 7.9502 37.709L8.1427 37.8263L8.7342 38.1815L7.88545 39.5763L7.22395 39.179L7.11195 39.1108C6.94359 39.0079 6.7773 38.9018 6.6132 38.7923C5.0312 37.7318 4.44145 36.575 4.4292 34.167V34.0935L6.06895 34.0953ZM20.1564 15.1533C20.0843 15.1776 20.0141 15.2075 19.9464 15.2425L9.53045 20.7165C9.51987 20.7222 9.50937 20.728 9.49895 20.734L9.4902 20.7393L9.5077 20.748L9.53045 20.7603L19.9464 26.2343C20.0146 26.27 20.0854 26.3004 20.1582 26.3253L20.1564 15.1533ZM21.7979 15.1533V26.3253C21.8708 26.3004 21.9416 26.27 22.0097 26.2343L32.4257 20.7603C32.4363 20.7546 32.4468 20.7487 32.4572 20.7428L32.466 20.7393L32.4484 20.7305L32.4257 20.7165L22.0097 15.2425C21.9415 15.2074 21.8707 15.1775 21.7979 15.1533ZM32.5744 9.12976L23.2295 14.0403L32.5744 18.9508V9.12976ZM9.4027 9.14026V18.9403L18.7249 14.0403L9.4027 9.14026ZM22.0097 1.84451C21.4672 1.55926 20.4872 1.55926 19.9464 1.84451L9.53045 7.31851C9.51986 7.32417 9.50936 7.33001 9.49895 7.33601L9.4902 7.34126L9.5077 7.35001L9.53045 7.36226L19.9464 12.8363C20.4889 13.1215 21.4689 13.1215 22.0097 12.8363L32.4257 7.36226C32.4363 7.3566 32.4468 7.35076 32.4572 7.34476L32.466 7.34126L32.4484 7.33076L32.4257 7.31851L22.0097 1.84451ZM34.1144 2.44476L34.7759 2.84201L34.888 2.91201C35.0805 3.02926 35.2379 3.12901 35.3867 3.22876C36.9687 4.29101 37.5584 5.44776 37.5707 7.85401V7.92751H35.9309C35.9309 6.87401 35.8085 6.18101 35.5634 5.69276C35.3605 5.28851 35.056 4.97876 34.5012 4.60251L34.4697 4.58151C34.3315 4.48954 34.1914 4.40027 34.0497 4.31376L33.8572 4.19651L33.2657 3.84126L34.1144 2.44476Z" fill="url(#paint0_linear_448_50)"/>
</g>
<defs>
<linearGradient id="paint0_linear_448_50" x1="20.9999" y1="-0.000427246" x2="20.9999" y2="42.0004" gradientUnits="userSpaceOnUse">
<stop stop-color="#008CFF"/>
<stop offset="1" stop-color="#00D1FF"/>
</linearGradient>
<clipPath id="clip0_448_50">
<rect width="42" height="42" fill="white"/>
</clipPath>
</defs>
</svg>
