<svg width="131" height="68" viewBox="0 0 131 68" fill="none" xmlns="http://www.w3.org/2000/svg">
<g id="Group 39475">
<path id="Vector" d="M87.2381 19.3862H84.0071C83.1137 19.3862 82.3916 20.11 82.3916 21.0018H71.0829C71.0829 20.11 70.3608 19.3862 69.4674 19.3862H66.2364C65.3446 19.3862 64.6208 20.11 64.6208 21.0018H53.3122C53.3122 20.11 52.5884 19.3862 51.6967 19.3862H48.4656C47.5739 19.3862 46.8501 20.11 46.8501 21.0018V24.2328C46.8501 25.1246 47.5739 25.8483 48.4656 25.8483H51.6967C52.5884 25.8483 53.3122 25.1246 53.3122 24.2328H58.1991C54.666 26.8774 52.2395 30.9194 51.7774 35.5414H51.6967C50.8049 35.5414 50.0811 36.2636 50.0811 37.157V40.388C50.0811 41.2814 50.8049 42.0035 51.6967 42.0035H54.9277C55.8195 42.0035 56.5432 41.2814 56.5432 40.388V37.157C56.5432 36.3024 55.8744 35.6222 55.0359 35.5641C55.6951 30.2425 59.5982 25.9226 64.7016 24.6383C64.8858 25.3281 65.4884 25.8483 66.2364 25.8483H69.4674C70.217 25.8483 70.818 25.3281 71.0005 24.6367C76.1056 25.921 80.0071 30.2409 80.6662 35.5624C79.8277 35.6222 79.1605 36.3024 79.1605 37.157V40.388C79.1605 41.2814 79.8827 42.0035 80.7761 42.0035H84.0071C84.9005 42.0035 85.6226 41.2814 85.6226 40.388V37.157C85.6226 36.2636 84.9005 35.5414 84.0071 35.5414H83.9247C83.4643 30.9194 81.0361 26.8774 77.503 24.2328H82.3916C82.3916 25.1246 83.1137 25.8483 84.0071 25.8483H87.2381C88.1315 25.8483 88.8537 25.1246 88.8537 24.2328V21.0018C88.8537 20.11 88.1315 19.3862 87.2381 19.3862Z" fill="url(#paint0_linear_448_32)"/>
<path id="Vector_2" d="M87.238 48.4657H50.0811V51.6967H87.238V48.4657Z" fill="url(#paint1_linear_448_32)"/>
<path id="Vector_3" d="M122.78 64.6209V39.7709C123.772 38.6336 124.395 37.1667 124.395 35.5415C124.395 32.5398 122.329 30.0309 119.549 29.3088V25.8483C119.549 24.9566 118.826 24.2328 117.933 24.2328C117.04 24.2328 116.318 24.9566 116.318 25.8483V29.3088C113.537 30.0309 111.471 32.5398 111.471 35.5415C111.471 37.1667 112.095 38.6336 113.086 39.7709V64.6209H106.624V6.46209C106.624 5.57032 105.902 4.84656 105.009 4.84656H35.5415V1.61552C35.5415 0.723754 34.8177 0 33.9259 0C30.3621 0 27.4639 2.89825 27.4639 6.46209V9.69313V61.3898C27.4639 62.5708 27.8064 63.6661 28.3621 64.6209H21.0018V3.23104C21.0018 2.33928 20.278 1.61552 19.3863 1.61552H9.69313C8.80136 1.61552 8.07761 2.33928 8.07761 3.23104V64.6209H0V67.8519H9.69313H19.3863H33.9259H105.009H113.086H116.318H119.549H122.78H130.857V64.6209H122.78ZM30.6949 6.46209C30.6949 5.26822 31.346 4.22459 32.3104 3.66562V55.1329C31.7385 55.2799 31.1957 55.5045 30.6949 55.7953V9.69313V6.46209ZM11.3086 64.6209V59.7743H12.9242V56.5433H11.3086V51.6967H12.9242V48.4656H11.3086V43.6191H12.9242V40.388H11.3086V35.5415H12.9242V32.3104H11.3086V27.4639H12.9242V24.2328H11.3086V19.3863H12.9242V16.1552H11.3086V11.3087H12.9242V8.07761H11.3086V4.84656H17.7707V64.6209H11.3086ZM33.9259 64.6209C32.144 64.6209 30.6949 63.1717 30.6949 61.3898C30.6949 59.6079 32.144 58.1588 33.9259 58.1588C34.8177 58.1588 35.5415 57.4366 35.5415 56.5433V8.07761H103.393V64.6209H33.9259ZM117.933 32.3104C119.715 32.3104 121.164 33.7596 121.164 35.5415C121.164 37.3234 119.715 38.7725 117.933 38.7725C116.151 38.7725 114.702 37.3234 114.702 35.5415C114.702 33.7596 116.151 32.3104 117.933 32.3104ZM116.318 64.6209V41.7742C116.836 41.9082 117.371 42.0036 117.933 42.0036C118.495 42.0036 119.03 41.9082 119.549 41.7742V64.6209H116.318Z" fill="url(#paint2_linear_448_32)"/>
</g>
<defs>
<linearGradient id="paint0_linear_448_32" x1="67.8519" y1="19.3862" x2="67.8519" y2="42.0035" gradientUnits="userSpaceOnUse">
<stop stop-color="#008CFF"/>
<stop offset="1" stop-color="#00D1FF"/>
</linearGradient>
<linearGradient id="paint1_linear_448_32" x1="68.6595" y1="48.4657" x2="68.6595" y2="51.6967" gradientUnits="userSpaceOnUse">
<stop stop-color="#008CFF"/>
<stop offset="1" stop-color="#00D1FF"/>
</linearGradient>
<linearGradient id="paint2_linear_448_32" x1="65.4286" y1="0" x2="65.4286" y2="67.8519" gradientUnits="userSpaceOnUse">
<stop stop-color="#008CFF"/>
<stop offset="1" stop-color="#00D1FF"/>
</linearGradient>
</defs>
</svg>
