<svg width="80" height="69" viewBox="0 0 80 69" fill="none" xmlns="http://www.w3.org/2000/svg">
<g id="Group">
<path id="Vector" d="M40.5 59.4H25.5C24.8 59.4 24.3 59.9 24.3 60.6C24.3 61.3 24.8 61.8 25.5 61.8H40.5C41.2001 61.8 41.7001 61.3 41.7001 60.6C41.7001 59.9 41.1 59.4 40.5 59.4Z" fill="url(#paint0_linear_448_902)"/>
<path id="Vector_2" d="M41.6 52.8H25.5C24.8 52.8 24.3 53.3001 24.3 54.0001C24.3 54.7001 24.8 55.2001 25.5 55.2001H41.6C42.3 55.2001 42.8 54.7001 42.8 54.0001C42.8 53.3001 42.3 52.8 41.6 52.8Z" fill="url(#paint1_linear_448_902)"/>
<path id="Vector_3" d="M45.0999 24.9L38.2999 31.6L34.9 28.2C34.4 27.7 33.6 27.7 33.2 28.2C32.7 28.7 32.7 29.4 33.2 29.9L37.5 34.1C38 34.6 38.7 34.6 39.2 34.1L46.7999 26.5C47.2999 26 47.2999 25.3 46.7999 24.8C46.2999 24.4 45.5999 24.4 45.0999 24.9Z" fill="url(#paint2_linear_448_902)"/>
<path id="Vector_4" d="M74.8 27.4C72.3 27.4 70.3 29.1 69.7 31.4H65.1V17.4C65.1 17.1 65 16.8 64.7 16.5L48.5 0.4C48.3 0.2 48 0 47.6 0H20.5C17.4 0 14.9 2.5 14.9 5.6V25.2H10.3C9.8 22.9 7.7 21.2 5.2 21.2C2.3 21.2 0 23.5 0 26.4C0 29.3 2.3 31.6 5.2 31.6C7.7 31.6 9.7 29.9 10.3 27.6H14.9V62.7C14.9 65.8 17.4 68.3 20.5 68.3H59.4C62.5 68.3 65 65.8 65 62.7V33.9H69.6C70.1 36.2 72.2 37.9 74.7 37.9C77.6 37.9 79.9 35.6 79.9 32.7C80 29.8 77.7 27.4 74.8 27.4ZM62.7 31.4H50.9C50.3 31.4 49.9 31.8 49.7 32.3C48.5 36.6 44.5 39.7 39.9 39.7C35.3 39.7 31.4 36.7 30.1 32.3C29.9 31.7 29.3 31.3 28.6 31.5C28 31.7 27.6 32.4 27.8 33C29.3 38.4 34.3 42.1 39.9 42.1C45.2 42.1 49.9 38.8 51.7 33.9H62.6V62.8C62.6 64.6 61.2 66 59.4 66H20.5C18.7 66 17.3 64.6 17.3 62.8V27.6H29C29.4 27.6 29.8 27.4 30 27.1L30.1 26.8C31.3 22.5 35.3 19.4 39.9 19.4C44.4 19.4 48.4 22.4 49.7 26.8C49.9 27.4 50.5 27.8 51.2 27.6C51.9 27.4 52.2 26.8 52 26.1C50.5 20.7 45.5 17 39.9 17C34.6 17 29.9 20.3 28.1 25.2H17.3V5.7C17.3 3.9 18.7 2.5 20.5 2.5H46.4V13.1C46.4 16.2 48.9 18.7 52 18.7H62.6V31.4H62.7Z" fill="url(#paint3_linear_448_902)"/>
<path id="Vector_5" d="M55.7001 57.7C55.7001 60.6 53.3 62.9 50.5 62.9C47.6 62.9 45.3 60.6 45.3 57.7C45.3 54.8 47.6 52.5 50.5 52.5C53.3 52.5 55.7001 54.8 55.7001 57.7Z" fill="url(#paint4_linear_448_902)"/>
<path id="Vector_6" d="M24.3 47.4C24.3 48.1 24.8 48.6 25.5 48.6H50.5C51.2001 48.6 51.7001 48.1 51.7001 47.4C51.7001 46.7 51.2001 46.2 50.5 46.2H25.5C24.8 46.2 24.3 46.8 24.3 47.4Z" fill="url(#paint5_linear_448_902)"/>
</g>
<defs>
<linearGradient id="paint0_linear_448_902" x1="33" y1="59.4" x2="33" y2="61.8" gradientUnits="userSpaceOnUse">
<stop stop-color="#008CFF"/>
<stop offset="1" stop-color="#00D1FF"/>
</linearGradient>
<linearGradient id="paint1_linear_448_902" x1="33.55" y1="52.8" x2="33.55" y2="55.2001" gradientUnits="userSpaceOnUse">
<stop stop-color="#008CFF"/>
<stop offset="1" stop-color="#00D1FF"/>
</linearGradient>
<linearGradient id="paint2_linear_448_902" x1="40" y1="24.5115" x2="40" y2="34.475" gradientUnits="userSpaceOnUse">
<stop stop-color="#008CFF"/>
<stop offset="1" stop-color="#00D1FF"/>
</linearGradient>
<linearGradient id="paint3_linear_448_902" x1="39.9516" y1="0" x2="39.9516" y2="68.3" gradientUnits="userSpaceOnUse">
<stop stop-color="#008CFF"/>
<stop offset="1" stop-color="#00D1FF"/>
</linearGradient>
<linearGradient id="paint4_linear_448_902" x1="50.5" y1="52.5" x2="50.5" y2="62.9" gradientUnits="userSpaceOnUse">
<stop stop-color="#008CFF"/>
<stop offset="1" stop-color="#00D1FF"/>
</linearGradient>
<linearGradient id="paint5_linear_448_902" x1="38" y1="46.2" x2="38" y2="48.6" gradientUnits="userSpaceOnUse">
<stop stop-color="#008CFF"/>
<stop offset="1" stop-color="#00D1FF"/>
</linearGradient>
</defs>
</svg>
