<svg width="84" height="68" viewBox="0 0 84 68" fill="none" xmlns="http://www.w3.org/2000/svg">
<g id="Group">
<path id="Vector" d="M5.35538 0H78.5688C80.0389 0 81.3778 0.602482 82.3471 1.57181C83.3218 2.53845 83.9242 3.87998 83.9242 5.35538V13.1314V58.3014V62.6446C83.9242 64.0584 83.3673 65.3464 82.4649 66.305L82.3524 66.4282C81.3831 67.3975 80.0416 68 78.5688 68H5.35538C3.88265 68 2.54113 67.3975 1.57181 66.4282C0.602481 65.4589 0 64.12 0 62.6446V13.1314V5.35538C0 3.88265 0.602481 2.54113 1.57181 1.57181L1.69498 1.45934C2.65359 0.55696 3.94424 0 5.35538 0ZM27.84 39.8762L18.3422 49.374C17.646 50.0702 16.516 50.0702 15.8171 49.374L10.9143 44.4711C10.2181 43.7749 10.2181 42.6449 10.9143 41.9461L20.4121 32.4483L18.1976 30.2338C17.5014 29.5376 17.5014 28.4076 18.1976 27.7088C18.468 27.4383 18.8054 27.2723 19.1562 27.2134L34.2718 23.8957C35.2331 23.6869 36.1837 24.3001 36.3898 25.2614C36.4461 25.5211 36.4434 25.7808 36.3872 26.0245L33.0561 41.2017C32.8473 42.1629 31.8994 42.7761 30.9381 42.5673C30.59 42.4923 30.2874 42.3183 30.0544 42.0853L27.84 39.8735V39.8762ZM17.081 45.5877L26.5788 36.0899C27.275 35.3937 28.405 35.3937 29.1038 36.0899L30.274 37.2601L32.3117 27.9765L23.0282 30.0143L24.1983 31.1844C24.8945 31.8806 24.8945 33.0106 24.1983 33.7095L14.7005 43.2072L17.081 45.5877ZM39.3085 56.5154H54.2393C54.2956 53.8671 54.475 51.3099 54.7588 48.8947C50.3701 48.5573 45.9947 48.0217 41.6435 47.2827C40.3394 50.1264 39.5254 53.2406 39.3059 56.5181L39.3085 56.5154ZM57.8087 56.5154H73.6312C73.575 53.9368 73.3982 51.4572 73.1171 49.1249C69.1835 49.3258 65.2339 49.3659 61.287 49.2454C60.299 49.216 59.3109 49.1731 58.3228 49.1223C58.039 51.4545 57.8649 53.9341 57.8087 56.5154ZM77.2032 56.5154H80.3522V48.5707C79.1312 48.6965 77.9075 48.8036 76.6811 48.8973C76.9676 51.3126 77.147 53.8671 77.2006 56.5154H77.2032ZM80.3522 60.0847H77.1979C77.1791 60.8372 77.1524 61.603 77.1149 62.3822C77.0801 63.073 77.0399 63.7559 76.989 64.4306H78.5635C79.0535 64.4306 79.5007 64.2298 79.8247 63.9058L79.8916 63.8415C80.1755 63.5256 80.3495 63.1052 80.3495 62.6446V60.0847H80.3522ZM73.6339 60.0847H57.806C57.8221 60.8291 57.8462 61.5414 57.8783 62.2215C57.9131 62.9659 57.9613 63.7023 58.0176 64.428H73.4196C73.4759 63.6996 73.5241 62.9606 73.5616 62.2135C73.5937 61.5334 73.6178 60.8238 73.6339 60.0821V60.0847ZM54.2393 60.0847H39.3032C39.346 60.7354 39.4103 61.3754 39.4986 62.002L39.5067 62.0555C39.6218 62.8642 39.7691 63.6568 39.9538 64.4306H54.4482C54.3973 63.7612 54.3572 63.0784 54.3223 62.3902C54.2849 61.6083 54.2554 60.8398 54.2393 60.0847ZM55.2676 45.3655C55.7549 42.5351 56.3976 39.9619 57.1607 37.7394C57.8542 35.7258 58.6656 33.9746 59.576 32.5447C54.7347 33.6961 50.4049 36.1783 47.0015 39.5816C45.6707 40.9125 44.4818 42.3852 43.4563 43.9757C47.3791 44.605 51.3207 45.0709 55.2703 45.3655H55.2676ZM71.8586 32.5366C72.769 33.9692 73.583 35.7204 74.2765 37.7394C75.0396 39.9619 75.6796 42.5325 76.1696 45.3601C77.5647 45.2557 78.9571 45.1325 80.3522 44.9852V36.2292C78.3439 34.8957 76.1402 33.8246 73.7999 33.0749C73.1653 32.8714 72.5173 32.6919 71.8612 32.534L71.8586 32.5366ZM72.5869 45.5824C72.1424 43.1028 71.572 40.8482 70.9026 38.8962C69.4004 34.5288 67.5528 31.8271 65.7186 31.8271C63.8844 31.8271 62.0341 34.5288 60.5346 38.8962C59.8625 40.8509 59.2948 43.1055 58.8503 45.5877C59.6938 45.6279 60.54 45.6627 61.3834 45.6895C65.1108 45.8046 68.8488 45.7698 72.5896 45.585L72.5869 45.5824ZM36.3068 64.428C36.1783 63.8094 36.0685 63.1828 35.9802 62.5563L35.9721 62.4973C35.7793 61.1076 35.6776 59.7045 35.6776 58.2987C35.6776 50.0032 39.0408 42.4896 44.4765 37.0566C49.9122 31.6209 57.4231 28.2577 65.7186 28.2577C68.8943 28.2577 71.9764 28.7611 74.879 29.6876C76.7962 30.3008 78.6278 31.0987 80.3522 32.06V14.9121H3.56936V62.6419C3.56936 63.132 3.77019 63.5791 4.09419 63.9031C4.41551 64.2244 4.86537 64.428 5.35271 64.428H36.3095H36.3068ZM19.7266 9.24072C18.7412 9.24072 17.9405 8.44276 17.9405 7.4547C17.9405 6.46931 18.7385 5.66868 19.7266 5.66868H53.195C54.1804 5.66868 54.9811 6.46663 54.9811 7.4547C54.9811 8.44009 54.1831 9.24072 53.195 9.24072H19.7266ZM9.26482 9.24072C8.27942 9.24072 7.4788 8.44276 7.4788 7.4547C7.4788 6.46931 8.27675 5.66868 9.26482 5.66868H14.1462C15.1316 5.66868 15.9323 6.46663 15.9323 7.4547C15.9323 8.44009 15.1343 9.24072 14.1462 9.24072H9.26482ZM78.5635 3.56669H5.35003C4.89214 3.56669 4.47175 3.74074 4.15578 4.02457L4.09151 4.09151C3.77019 4.41284 3.56669 4.86269 3.56669 5.35003V11.3427H80.3495V5.35003C80.3495 4.86269 80.146 4.41284 79.8247 4.09151C79.506 3.76751 79.0562 3.56669 78.5635 3.56669Z" fill="url(#paint0_linear_448_912)"/>
</g>
<defs>
<linearGradient id="paint0_linear_448_912" x1="41.9621" y1="0" x2="41.9621" y2="68" gradientUnits="userSpaceOnUse">
<stop stop-color="#008CFF"/>
<stop offset="1" stop-color="#00D1FF"/>
</linearGradient>
</defs>
</svg>
