<svg width="36" height="37" viewBox="0 0 36 37" fill="none" xmlns="http://www.w3.org/2000/svg">
<g id="Social Media Icon Square/Instagram">
<rect id="Social Media Icon" y="0.773926" width="36" height="36" rx="8" fill="white"/>
<path id="Instagram" fill-rule="evenodd" clip-rule="evenodd" d="M9 18.7739C9 15.1788 9 13.3812 9.85669 12.0865C10.2392 11.5083 10.7344 11.0132 11.3126 10.6306C12.6073 9.77393 14.4049 9.77393 18 9.77393C21.5951 9.77393 23.3927 9.77393 24.6874 10.6306C25.2656 11.0132 25.7608 11.5083 26.1433 12.0865C27 13.3812 27 15.1788 27 18.7739C27 22.3691 27 24.1666 26.1433 25.4614C25.7608 26.0395 25.2656 26.5347 24.6874 26.9172C23.3927 27.7739 21.5951 27.7739 18 27.7739C14.4049 27.7739 12.6073 27.7739 11.3126 26.9172C10.7344 26.5347 10.2392 26.0395 9.85669 25.4614C9 24.1666 9 22.3691 9 18.7739ZM22.6593 18.7742C22.6593 21.3475 20.5732 23.4336 17.9998 23.4336C15.4265 23.4336 13.3404 21.3475 13.3404 18.7742C13.3404 16.2008 15.4265 14.1147 17.9998 14.1147C20.5732 14.1147 22.6593 16.2008 22.6593 18.7742ZM17.9998 21.8572C19.7025 21.8572 21.0828 20.4768 21.0828 18.7742C21.0828 17.0715 19.7025 15.6911 17.9998 15.6911C16.2971 15.6911 14.9168 17.0715 14.9168 18.7742C14.9168 20.4768 16.2971 21.8572 17.9998 21.8572ZM22.8433 14.9755C23.4479 14.9755 23.9381 14.4853 23.9381 13.8807C23.9381 13.276 23.4479 12.7858 22.8433 12.7858C22.2386 12.7858 21.7485 13.276 21.7485 13.8807C21.7485 14.4853 22.2386 14.9755 22.8433 14.9755Z" fill="url(#paint0_linear_434_883)"/>
</g>
<defs>
<linearGradient id="paint0_linear_434_883" x1="18" y1="9.77393" x2="18" y2="27.7739" gradientUnits="userSpaceOnUse">
<stop stop-color="#008CFF"/>
<stop offset="1" stop-color="#00D1FF"/>
</linearGradient>
</defs>
</svg>
