<svg width="36" height="37" viewBox="0 0 36 37" fill="none" xmlns="http://www.w3.org/2000/svg">
<g id="Social Media Icon Square/LinkedIn">
<g id="Group 73">
<rect id="Social Media Icon" y="0.773926" width="36" height="36" rx="8" fill="white"/>
<path id="LinkedIn" d="M9 12.194C9 11.6168 9.20271 11.1406 9.60811 10.7654C10.0135 10.3902 10.5405 10.2026 11.1892 10.2026C11.8263 10.2026 12.3417 10.3873 12.7355 10.7567C13.1409 11.1377 13.3436 11.6341 13.3436 12.2459C13.3436 12.8 13.1467 13.2618 12.7529 13.6312C12.3475 14.0122 11.8147 14.2026 11.1544 14.2026H11.1371C10.5 14.2026 9.98456 14.0122 9.59073 13.6312C9.19691 13.2503 9 12.7712 9 12.194ZM9.22587 27.3455V15.7784H13.083V27.3455H9.22587ZM15.2201 27.3455H19.0772V20.8866C19.0772 20.4826 19.1236 20.1709 19.2162 19.9516C19.3784 19.559 19.6245 19.2272 19.9546 18.9559C20.2847 18.6846 20.6988 18.549 21.1969 18.549C22.4942 18.549 23.1429 19.4205 23.1429 21.1637V27.3455H27V20.7135C27 19.0049 26.5946 17.7091 25.7838 16.826C24.973 15.9429 23.9015 15.5013 22.5695 15.5013C21.0753 15.5013 19.9112 16.142 19.0772 17.4234V17.458H19.0598L19.0772 17.4234V15.7784H15.2201C15.2432 16.1478 15.2548 17.2964 15.2548 19.2243C15.2548 21.1521 15.2432 23.8592 15.2201 27.3455Z" fill="url(#paint0_linear_434_890)"/>
</g>
</g>
<defs>
<linearGradient id="paint0_linear_434_890" x1="18" y1="10.2026" x2="18" y2="27.3455" gradientUnits="userSpaceOnUse">
<stop stop-color="#008CFF"/>
<stop offset="1" stop-color="#00D1FF"/>
</linearGradient>
</defs>
</svg>
