<svg width="52" height="52" viewBox="0 0 52 52" fill="none" xmlns="http://www.w3.org/2000/svg">
<g id="devicon:polygon">
<path id="Vector" d="M34.896 20.0046C34.5572 19.824 34.1793 19.7296 33.7955 19.7296C33.4116 19.7296 33.0337 19.824 32.6949 20.0046L27.733 22.9389L24.2669 24.8653L19.3049 27.8013C18.9662 27.9818 18.5882 28.0763 18.2044 28.0763C17.8205 28.0763 17.4426 27.9818 17.1039 27.8013L13.1604 25.5064C12.8358 25.3192 12.5643 25.0524 12.3716 24.7311C12.1789 24.4098 12.0713 24.0446 12.059 23.6702V19.0893C12.052 18.7108 12.1516 18.338 12.3462 18.0133C12.5409 17.6886 12.8228 17.4252 13.16 17.253L17.1039 15.0524C17.4424 14.8711 17.8204 14.7762 18.2044 14.7762C18.5884 14.7762 18.9664 14.8711 19.3049 15.0524L23.2484 17.2534C23.5729 17.4407 23.8443 17.7075 24.0369 18.0288C24.2296 18.3501 24.3371 18.7153 24.3493 19.0897V22.022L27.733 20.005V17.1628C27.7422 16.7862 27.6456 16.4146 27.4543 16.09C27.2631 15.7655 26.9847 15.501 26.6507 15.3266L19.3951 11.1089C19.0566 10.9276 18.6786 10.8328 18.2946 10.8328C17.9106 10.8328 17.5325 10.9276 17.194 11.1089L9.85798 15.3266C9.49174 15.4689 9.17954 15.7228 8.96562 16.0523C8.75169 16.3819 8.64689 16.7704 8.66605 17.1628V25.6904C8.66068 26.0674 8.76102 26.4383 8.95567 26.7611C9.15033 27.0839 9.43153 27.3458 9.76739 27.5169L17.1039 31.7448C17.4426 31.9253 17.8205 32.0197 18.2044 32.0197C18.5882 32.0197 18.9662 31.9253 19.3049 31.7448L24.2669 28.901L27.6599 26.884L32.6047 24.0496C32.9435 23.8691 33.3214 23.7746 33.7053 23.7746C34.0891 23.7746 34.4671 23.8691 34.8058 24.0496L38.7493 26.2507C39.0736 26.4379 39.3449 26.7048 39.5373 27.0261C39.7297 27.3475 39.837 27.7126 39.849 28.0869V32.5808C39.856 32.959 39.7567 33.3315 39.5622 33.6559C39.3678 33.9802 39.0861 34.2435 38.7493 34.4155L34.8058 36.7067C34.4673 36.888 34.0893 36.9829 33.7053 36.9829C33.3213 36.9829 32.9432 36.888 32.6047 36.7067L28.6613 34.5057C28.3368 34.3189 28.0654 34.0524 27.8726 33.7314C27.6799 33.4105 27.5723 33.0456 27.5599 32.6714V29.7261L24.2669 31.6509V34.5837C24.2596 34.962 24.3589 35.3349 24.5533 35.6595C24.7478 35.9842 25.0296 36.2477 25.3666 36.4199L32.703 40.6372C33.0418 40.8185 33.4201 40.9133 33.8044 40.9133C34.1886 40.9133 34.5669 40.8185 34.9057 40.6372L42.2418 36.4191C42.5642 36.2312 42.8335 35.9644 43.0246 35.6439C43.2156 35.3233 43.322 34.9595 43.3338 34.5865V26.0553C43.3408 25.6769 43.2413 25.3042 43.0465 24.9798C42.8518 24.6554 42.5697 24.3923 42.2325 24.2206L34.896 20.0046Z" fill="url(#paint0_linear_448_44)"/>
</g>
<defs>
<linearGradient id="paint0_linear_448_44" x1="25.999" y1="10.8328" x2="25.999" y2="40.9133" gradientUnits="userSpaceOnUse">
<stop stop-color="#008CFF"/>
<stop offset="1" stop-color="#00D1FF"/>
</linearGradient>
</defs>
</svg>
