<svg width="36" height="37" viewBox="0 0 36 37" fill="none" xmlns="http://www.w3.org/2000/svg">
<g id="Social Media Icon Square/Twitter">
<rect id="Social Media Icon" y="0.773926" width="36" height="36" rx="8" fill="white"/>
<path id="Twitter" d="M21.0271 11.4754V11.4722H21.8711L22.1794 11.5338C22.385 11.5737 22.5717 11.6261 22.7394 11.691C22.9071 11.7558 23.0694 11.8315 23.2263 11.9179C23.3832 12.0043 23.5255 12.0924 23.6532 12.1821C23.7798 12.2707 23.8934 12.3647 23.9941 12.4641C24.0936 12.5646 24.2489 12.5905 24.4599 12.5419C24.6709 12.4933 24.8981 12.4258 25.1416 12.3393C25.385 12.2529 25.6258 12.1556 25.8638 12.0476C26.1019 11.9395 26.2469 11.8709 26.2988 11.8417C26.3497 11.8115 26.3768 11.7953 26.38 11.7931L26.3832 11.7882L26.3995 11.7801L26.4157 11.772L26.4319 11.7639L26.4482 11.7558L26.4514 11.751L26.4563 11.7477L26.4612 11.7445L26.4644 11.7396L26.4806 11.7347L26.4968 11.7315L26.4936 11.7558L26.4887 11.7801L26.4806 11.8044L26.4725 11.8288L26.4644 11.845L26.4563 11.8612L26.4482 11.8855C26.4427 11.9017 26.4373 11.9233 26.4319 11.9503C26.4265 11.9773 26.3751 12.0854 26.2777 12.2745C26.1803 12.4636 26.0586 12.6554 25.9125 12.8499C25.7665 13.0444 25.6355 13.1913 25.5198 13.2908C25.4029 13.3912 25.3255 13.4615 25.2876 13.5015C25.2498 13.5425 25.2038 13.5803 25.1497 13.6149L25.0685 13.6684L25.0523 13.6765L25.0361 13.6846L25.0328 13.6895L25.028 13.6927L25.0231 13.696L25.0198 13.7008L25.0036 13.7089L24.9874 13.717L24.9841 13.7219L24.9793 13.7251L24.9744 13.7284L24.9711 13.7332L24.9679 13.7381L24.963 13.7413L24.9582 13.7446L24.9549 13.7494H25.0361L25.4905 13.6522C25.7935 13.5874 26.083 13.509 26.3589 13.4172L26.7971 13.2713L26.8458 13.2551L26.8702 13.247L26.8864 13.2389L26.9026 13.2308L26.9188 13.2227L26.9351 13.2146L26.9675 13.2097L27 13.2065V13.2389L26.9919 13.2421L26.9838 13.247L26.9805 13.2519L26.9757 13.2551L26.9708 13.2583L26.9675 13.2632L26.9643 13.2681L26.9594 13.2713L26.9546 13.2745L26.9513 13.2794L26.9481 13.2843L26.9432 13.2875L26.9351 13.3037L26.927 13.3199L26.9221 13.3232C26.9199 13.3264 26.8512 13.4182 26.716 13.5987C26.5807 13.7802 26.5077 13.8721 26.4968 13.8743C26.486 13.8775 26.4709 13.8937 26.4514 13.9229C26.433 13.9531 26.3183 14.0736 26.1073 14.2843C25.8963 14.495 25.6897 14.6825 25.4873 14.8468C25.2839 15.0121 25.1811 15.2152 25.1789 15.4562C25.1757 15.6961 25.1632 15.9673 25.1416 16.2699C25.1199 16.5724 25.0794 16.8993 25.0198 17.2505C24.9603 17.6017 24.8684 17.9988 24.7439 18.4418C24.6195 18.8848 24.468 19.317 24.2894 19.7385C24.1109 20.1599 23.9243 20.5381 23.7295 20.873C23.5347 21.208 23.3562 21.4917 23.1939 21.724C23.0316 21.9563 22.8666 22.1751 22.6988 22.3804C22.5311 22.5857 22.319 22.817 22.0626 23.0741C21.8051 23.3302 21.6644 23.4707 21.6406 23.4956C21.6157 23.5193 21.5097 23.608 21.3225 23.7614C21.1363 23.9159 20.9362 24.0704 20.7219 24.2249C20.5088 24.3784 20.3129 24.5064 20.1344 24.6091C19.9558 24.7117 19.7405 24.829 19.4884 24.9608C19.2373 25.0937 18.9657 25.2169 18.6736 25.3304C18.3814 25.4438 18.073 25.5492 17.7484 25.6464C17.4238 25.7437 17.11 25.8193 16.807 25.8733C16.5041 25.9274 16.1605 25.9733 15.7764 26.0111L15.2002 26.0678V26.0759H14.1452V26.0678L14.0072 26.0597C13.9152 26.0543 13.8395 26.0489 13.78 26.0435C13.7205 26.0381 13.4959 26.0084 13.1064 25.9544C12.7169 25.9004 12.4112 25.8463 12.1894 25.7923C11.9675 25.7383 11.6375 25.6356 11.1993 25.4843C10.761 25.3331 10.3861 25.1802 10.0745 25.0256C9.76394 24.8722 9.56917 24.7749 9.49017 24.7339C9.41226 24.6939 9.32462 24.6442 9.22723 24.5848L9.08115 24.4956L9.07792 24.4908L9.07304 24.4875L9.06817 24.4843L9.06492 24.4794L9.04869 24.4713L9.03246 24.4632L9.02923 24.4583L9.02435 24.4551L9.01948 24.4519L9.01623 24.447L9.013 24.4421L9.00812 24.4389H9V24.4065L9.01623 24.4097L9.03246 24.4146L9.1055 24.4227C9.15419 24.4281 9.28675 24.4362 9.50316 24.447C9.71958 24.4578 9.9495 24.4578 10.193 24.447C10.4364 24.4362 10.6853 24.4119 10.9396 24.3741C11.1939 24.3362 11.4941 24.2714 11.8404 24.1796C12.1867 24.0877 12.5048 23.9786 12.7948 23.8521C13.0837 23.7247 13.2893 23.6296 13.4116 23.5669C13.5327 23.5053 13.7178 23.3907 13.9666 23.2233L14.3399 22.972L14.3432 22.9672L14.3481 22.9639L14.3529 22.9607L14.3562 22.9558L14.3594 22.951L14.3643 22.9477L14.3692 22.9445L14.3724 22.9396L14.3886 22.9348L14.4049 22.9315L14.4081 22.9153L14.413 22.8991L14.4179 22.8959L14.4211 22.891L14.2913 22.8829C14.2047 22.8775 14.1208 22.8721 14.0397 22.8667C13.9585 22.8613 13.8314 22.837 13.6583 22.7937C13.4851 22.7505 13.2985 22.6857 13.0983 22.5992C12.8981 22.5128 12.7033 22.4101 12.514 22.2913C12.3246 22.1724 12.1877 22.0735 12.1033 21.9947C12.02 21.9169 11.9118 21.8066 11.7787 21.664C11.6467 21.5203 11.532 21.3728 11.4346 21.2215C11.3372 21.0703 11.2442 20.8957 11.1555 20.698L11.0207 20.403L11.0126 20.3787L11.0045 20.3544L10.9996 20.3382L10.9964 20.322L11.0207 20.3252L11.0451 20.3301L11.2236 20.3544C11.3427 20.3706 11.5293 20.376 11.7836 20.3706C12.0379 20.3652 12.2137 20.3544 12.3111 20.3382C12.4085 20.322 12.468 20.3111 12.4896 20.3058L12.5221 20.2976L12.5627 20.2895L12.6032 20.2814L12.6065 20.2766L12.6114 20.2733L12.6162 20.2701L12.6195 20.2652L12.587 20.2571L12.5546 20.249L12.5221 20.2409L12.4896 20.2328L12.4572 20.2247C12.4355 20.2193 12.3977 20.2085 12.3436 20.1923C12.2895 20.1761 12.1434 20.1166 11.9053 20.014C11.6673 19.9114 11.4779 19.8114 11.3372 19.7141C11.1962 19.6166 11.0618 19.5099 10.9347 19.3948C10.8081 19.2781 10.6691 19.1279 10.5176 18.9442C10.3661 18.7606 10.2308 18.5471 10.1118 18.304C9.99279 18.0609 9.90352 17.8286 9.844 17.6071C9.78472 17.3868 9.74561 17.1617 9.72716 16.9344L9.69793 16.594L9.71416 16.5973L9.73039 16.6021L9.74662 16.6102L9.76285 16.6183L9.77908 16.6264L9.79531 16.6345L10.0469 16.748C10.2146 16.8236 10.4229 16.8885 10.6718 16.9425C10.9207 16.9965 11.0694 17.0263 11.1181 17.0317L11.1912 17.0398H11.3372L11.334 17.0349L11.3291 17.0317L11.3243 17.0284L11.321 17.0235L11.3178 17.0187L11.3129 17.0154L11.308 17.0122L11.3048 17.0073L11.2885 16.9992L11.2723 16.9911L11.2691 16.9863L11.2642 16.983L11.2593 16.9798L11.2561 16.9749L11.2399 16.9668L11.2236 16.9587L11.2204 16.9539C11.2171 16.9517 11.1706 16.9171 11.0808 16.8501C10.9921 16.782 10.899 16.694 10.8016 16.5859C10.7042 16.4779 10.6069 16.3644 10.5095 16.2455C10.4119 16.1264 10.325 15.999 10.2498 15.8646C10.174 15.7296 10.094 15.5578 10.0096 15.3492C9.92625 15.1418 9.86294 14.9327 9.81966 14.722C9.77639 14.5112 9.75204 14.3032 9.74662 14.0979C9.74121 13.8926 9.74662 13.717 9.76285 13.5712C9.77908 13.4253 9.81154 13.2605 9.86023 13.0768C9.90893 12.8931 9.97927 12.6986 10.0712 12.4933L10.2092 12.1853L10.2173 12.161L10.2254 12.1367L10.2303 12.1335L10.2335 12.1286L10.2368 12.1237L10.2417 12.1205L10.2465 12.1237L10.2498 12.1286L10.253 12.1335L10.2579 12.1367L10.2628 12.14L10.266 12.1448L10.2693 12.1497L10.2741 12.1529L10.2822 12.1691L10.2904 12.1853L10.2952 12.1886L10.2985 12.1934L10.5176 12.4366C10.6637 12.5987 10.8368 12.7797 11.037 12.9796C11.2372 13.1794 11.3481 13.2832 11.3697 13.2908C11.3914 13.2994 11.4184 13.3242 11.4509 13.3653C11.4833 13.4053 11.5915 13.5009 11.7755 13.6522C11.9594 13.8035 12.2002 13.9791 12.4977 14.179C12.7953 14.3789 13.1253 14.5761 13.4878 14.7706C13.8503 14.9651 14.2399 15.1407 14.6564 15.2974C15.073 15.454 15.3652 15.5567 15.5329 15.6053C15.7006 15.6539 15.9874 15.7161 16.3931 15.7917C16.7989 15.8674 17.1046 15.916 17.3102 15.9376C17.5158 15.9592 17.6565 15.9716 17.7322 15.9749L17.8458 15.9781L17.8426 15.9538L17.8377 15.9295L17.8052 15.7269C17.7836 15.5918 17.7728 15.4027 17.7728 15.1596C17.7728 14.9165 17.7917 14.6922 17.8296 14.4869C17.8675 14.2816 17.9243 14.0736 18 13.8629C18.0757 13.6522 18.1499 13.4831 18.2224 13.3556C18.296 13.2292 18.3923 13.0849 18.5113 12.9228C18.6303 12.7607 18.7845 12.5933 18.9739 12.4204C19.1632 12.2475 19.3796 12.0935 19.6231 11.9584C19.8665 11.8234 20.0911 11.7207 20.2967 11.6505C20.5023 11.5802 20.6754 11.5343 20.8161 11.5127C20.9567 11.4911 21.0271 11.4787 21.0271 11.4754Z" fill="url(#paint0_linear_434_880)"/>
</g>
<defs>
<linearGradient id="paint0_linear_434_880" x1="18" y1="11.4722" x2="18" y2="26.0759" gradientUnits="userSpaceOnUse">
<stop stop-color="#008CFF"/>
<stop offset="1" stop-color="#00D1FF"/>
</linearGradient>
</defs>
</svg>
