<svg width="36" height="37" viewBox="0 0 36 37" fill="none" xmlns="http://www.w3.org/2000/svg">
<g id="Social Media Icon Square/YouTube">
<g id="Group 73">
<rect id="Social Media Icon" y="0.773926" width="36" height="36" rx="8" fill="white"/>
<path id="YouTube" d="M18.4388 25.7536L14.3766 25.6777C13.0613 25.6512 11.7428 25.704 10.4533 25.43C8.49177 25.0204 8.35281 23.0125 8.20739 21.3283C8.00703 18.9605 8.0846 16.5496 8.46271 14.2016C8.67616 12.8841 9.51619 12.0979 10.8153 12.0123C15.2006 11.7019 19.6151 11.7386 23.9908 11.8835C24.4529 11.8968 24.9182 11.9694 25.3739 12.052C27.6232 12.4549 27.678 14.7303 27.8238 16.6457C27.9692 18.581 27.9078 20.5261 27.6299 22.4482C27.4069 24.0396 26.9803 25.3741 25.1799 25.5029C22.9242 25.6714 20.7202 25.807 18.4581 25.7638C18.4582 25.7536 18.4452 25.7536 18.4388 25.7536ZM16.0506 21.7246C17.7505 20.7272 19.418 19.7464 21.1081 18.7557C19.4051 17.7583 17.7408 16.7775 16.0506 15.7868V21.7246Z" fill="url(#paint0_linear_434_894)"/>
</g>
</g>
<defs>
<linearGradient id="paint0_linear_434_894" x1="18.0001" y1="11.7754" x2="18.0001" y2="25.7719" gradientUnits="userSpaceOnUse">
<stop stop-color="#008CFF"/>
<stop offset="1" stop-color="#00D1FF"/>
</linearGradient>
</defs>
</svg>
